Lora-Regular.ufo
<glyph name="exclam" format="1">
  <advance width="545"/>
  <unicode hex="0021"/>
  <outline>
    <contour>
      <point x="188" y="1467"/>
      <point x="147" y="1389"/>
      <point x="153" y="1316" type="curve" smooth="yes"/>
      <point x="233" y="471" type="line"/>
      <point x="309" y="471" type="line"/>
      <point x="389" y="1316" type="line" smooth="yes"/>
      <point x="395" y="1389"/>
      <point x="360" y="1467"/>
      <point x="272" y="1467" type="curve" smooth="yes"/>
    </contour>
    <contour>
      <point x="208" y="232"/>
      <point x="151" y="172"/>
      <point x="151" y="98" type="curve" smooth="yes"/>
      <point x="151" y="25"/>
      <point x="206" y="-33"/>
      <point x="270" y="-33" type="curve" smooth="yes"/>
      <point x="333" y="-33"/>
      <point x="391" y="25"/>
      <point x="391" y="98" type="curve" smooth="yes"/>
      <point x="391" y="172"/>
      <point x="340" y="232"/>
      <point x="272" y="232" type="curve" smooth="yes"/>
    </contour>
  </outline>
</glyph>
<glyph name="quotesingle" format="1">
  <advance width="426"/>
  <unicode hex="0027"/>
  <outline>
    <contour>
      <point x="127" y="1467" type="line"/>
      <point x="146" y="1006" type="line"/>
      <point x="281" y="1006" type="line"/>
      <point x="299" y="1467" type="line"/>
    </contour>
  </outline>
</glyph>
<glyph name="slash" format="1">
  <advance width="1413"/>
  <unicode hex="002F"/>
  <outline>
    <contour>
      <point x="43" y="-481" type="line"/>
      <point x="162" y="-556" type="line"/>
      <point x="1372" y="1473" type="line"/>
      <point x="1240" y="1556" type="line"/>
    </contour>
  </outline>
</glyph>
<glyph name="five" format="1">
  <advance width="1114"/>
  <unicode hex="0035"/>
  <outline>
    <contour>
      <point x="896" y="1567" type="line"/>
      <point x="896" y="1475"/>
      <point x="847" y="1434"/>
      <point x="693" y="1434" type="curve" smooth="yes"/>
      <point x="161" y="1434" type="line"/>
      <point x="166" y="778" type="line"/>
      <point x="223" y="725" type="line"/>
      <point x="293" y="770"/>
      <point x="424" y="797"/>
      <point x="494" y="797" type="curve" smooth="yes"/>
      <point x="782" y="797"/>
      <point x="811" y="547"/>
      <point x="811" y="393" type="curve" smooth="yes"/>
      <point x="811" y="219"/>
      <point x="727" y="56"/>
      <point x="528" y="47" type="curve" smooth="yes"/>
      <point x="432" y="43"/>
      <point x="291" y="85"/>
      <point x="274" y="187" type="curve"/>
      <point x="287" y="210"/>
      <point x="296" y="239"/>
      <point x="296" y="266" type="curve" smooth="yes"/>
      <point x="296" y="303"/>
      <point x="274" y="363"/>
      <point x="200" y="359" type="curve" smooth="yes"/>
      <point x="139" y="356"/>
      <point x="106" y="307"/>
      <point x="106" y="246" type="curve" smooth="yes"/>
      <point x="106" y="125"/>
      <point x="258" y="-33"/>
      <point x="520" y="-33" type="curve" smooth="yes"/>
      <point x="786" y="-33"/>
      <point x="1024" y="127"/>
      <point x="1024" y="430" type="curve" smooth="yes"/>
      <point x="1024" y="651"/>
      <point x="889" y="889"/>
      <point x="553" y="889" type="curve" smooth="yes"/>
      <point x="433" y="889"/>
      <point x="322" y="858"/>
      <point x="256" y="832" type="curve"/>
      <point x="255" y="1282" type="line"/>
      <point x="941" y="1296" type="line"/>
      <point x="953" y="1567" type="line"/>
    </contour>
  </outline>
</glyph>
<glyph name="seven" format="1">
  <advance width="944"/>
  <unicode hex="0037"/>
  <outline>
    <contour>
      <point x="45" y="1434" type="line"/>
      <point x="45" y="1130" type="line"/>
      <point x="94" y="1130" type="line"/>
      <point x="94" y="1242"/>
      <point x="158" y="1289"/>
      <point x="268" y="1290" type="curve" smooth="yes"/>
      <point x="809" y="1293" type="line"/>
      <point x="674" y="1010"/>
      <point x="543" y="667"/>
      <point x="467" y="475" type="curve" smooth="yes"/>
      <point x="414" y="340"/>
      <point x="328" y="146"/>
      <point x="328" y="58" type="curve" smooth="yes"/>
      <point x="328" y="9"/>
      <point x="346" y="-29"/>
      <point x="400" y="-33" type="curve" smooth="yes"/>
      <point x="465" y="-37"/>
      <point x="495" y="26"/>
      <point x="512" y="93" type="curve" smooth="yes"/>
      <point x="631" y="575"/>
      <point x="705" y="887"/>
      <point x="903" y="1294" type="curve"/>
      <point x="903" y="1434" type="line"/>
    </contour>
  </outline>
</glyph>
<glyph name="question" format="1">
  <advance width="971"/>
  <unicode hex="003F"/>
  <outline>
    <contour>
      <point x="224" y="1467"/>
      <point x="68" y="1301"/>
      <point x="68" y="1181" type="curve" smooth="yes"/>
      <point x="68" y="1123"/>
      <point x="96" y="1077"/>
      <point x="155" y="1074" type="curve" smooth="yes"/>
      <point x="222" y="1071"/>
      <point x="249" y="1127"/>
      <point x="249" y="1162" type="curve" smooth="yes"/>
      <point x="249" y="1191"/>
      <point x="240" y="1218"/>
      <point x="226" y="1242" type="curve"/>
      <point x="236" y="1306"/>
      <point x="333" y="1387"/>
      <point x="451" y="1387" type="curve" smooth="yes"/>
      <point x="644" y="1387"/>
      <point x="705" y="1263"/>
      <point x="701" y="1115" type="curve" smooth="yes"/>
      <point x="691" y="802"/>
      <point x="298" y="707"/>
      <point x="298" y="522" type="curve" smooth="yes"/>
      <point x="298" y="422"/>
      <point x="382" y="385"/>
      <point x="462" y="385" type="curve" smooth="yes"/>
      <point x="513" y="385"/>
      <point x="580" y="397"/>
      <point x="623" y="422" type="curve"/>
      <point x="599" y="494" type="line"/>
      <point x="574" y="483"/>
      <point x="542" y="479"/>
      <point x="523" y="479" type="curve" smooth="yes"/>
      <point x="458" y="479"/>
      <point x="437" y="514"/>
      <point x="437" y="547" type="curve" smooth="yes"/>
      <point x="437" y="684"/>
      <point x="877" y="832"/>
      <point x="894" y="1109" type="curve" smooth="yes"/>
      <point x="904" y="1281"/>
      <point x="798" y="1467"/>
      <point x="482" y="1467" type="curve" smooth="yes"/>
    </contour>
    <contour>
      <point x="419" y="209"/>
      <point x="365" y="154"/>
      <point x="365" y="88" type="curve" smooth="yes"/>
      <point x="365" y="12"/>
      <point x="419" y="-33"/>
      <point x="476" y="-33" type="curve" smooth="yes"/>
      <point x="539" y="-33"/>
      <point x="585" y="21"/>
      <point x="585" y="88" type="curve" smooth="yes"/>
      <point x="585" y="154"/>
      <point x="537" y="209"/>
      <point x="476" y="209" type="curve" smooth="yes"/>
    </contour>
  </outline>
</glyph>
<glyph name="G" format="1">
  <advance width="1559"/>
  <unicode hex="0047"/>
  <outline>
    <contour>
      <point x="331" y="1467"/>
      <point x="96" y="1071"/>
      <point x="96" y="686" type="curve" smooth="yes"/>
      <point x="96" y="238"/>
      <point x="381" y="-33"/>
      <point x="792" y="-33" type="curve" smooth="yes"/>
      <point x="882" y="-33"/>
      <point x="1007" y="-12"/>
      <point x="1091" y="21" type="curve" smooth="yes"/>
      <point x="1190" y="59"/>
      <point x="1267" y="74"/>
      <point x="1312" y="74" type="curve" smooth="yes"/>
      <point x="1368" y="74" type="line"/>
      <point x="1368" y="387" type="line" smooth="yes"/>
      <point x="1368" y="442"/>
      <point x="1362" y="631"/>
      <point x="1515" y="631" type="curve"/>
      <point x="1515" y="698" type="line"/>
      <point x="1052" y="698" type="line"/>
      <point x="1052" y="608" type="line"/>
      <point x="1196" y="616" type="line"/>
      <point x="1196" y="168" type="line"/>
      <point x="1089" y="96"/>
      <point x="954" y="66"/>
      <point x="845" y="66" type="curve" smooth="yes"/>
      <point x="522" y="66"/>
      <point x="297" y="346"/>
      <point x="297" y="733" type="curve" smooth="yes"/>
      <point x="297" y="1114"/>
      <point x="532" y="1385"/>
      <point x="823" y="1385" type="curve" smooth="yes"/>
      <point x="1061" y="1385"/>
      <point x="1245" y="1239"/>
      <point x="1263" y="983" type="curve"/>
      <point x="1337" y="983" type="line"/>
      <point x="1337" y="1452" type="line"/>
      <point x="1224" y="1452" type="line"/>
      <point x="1233" y="1354" type="line"/>
      <point x="1118" y="1423"/>
      <point x="956" y="1467"/>
      <point x="809" y="1467" type="curve" smooth="yes"/>
    </contour>
    <contour>
      <point x="812" y="1434" type="move" name="top"/>
    </contour>
    <contour>
      <point x="874" y="0" type="move" name="bottom"/>
    </contour>
  </outline>
</glyph>
<glyph name="N" format="1">
  <advance width="1561"/>
  <unicode hex="004E"/>
  <outline>
    <contour>
      <point x="1096" y="1434" type="line"/>
      <point x="1096" y="1343" type="line"/>
      <point x="1243" y="1352" type="line"/>
      <point x="1239" y="1311"/>
      <point x="1237" y="1260"/>
      <point x="1237" y="1204" type="curve" smooth="yes"/>
      <point x="1235" y="267" type="line"/>
      <point x="1233" y="267" type="line"/>
      <point x="361" y="1434" type="line"/>
      <point x="117" y="1434" type="line"/>
      <point x="117" y="1343" type="line"/>
      <point x="254" y="1352" type="line"/>
      <point x="252" y="229" type="line" smooth="yes"/>
      <point x="252" y="166"/>
      <point x="242" y="68"/>
      <point x="117" y="68" type="curve"/>
      <point x="117" y="0" type="line"/>
      <point x="492" y="0" type="line"/>
      <point x="492" y="90" type="line"/>
      <point x="344" y="82" type="line"/>
      <point x="348" y="147"/>
      <point x="348" y="215"/>
      <point x="348" y="285" type="curve" smooth="yes"/>
      <point x="341" y="1162" type="line"/>
      <point x="344" y="1162" type="line"/>
      <point x="1233" y="-33" type="line"/>
      <point x="1332" y="-33" type="line"/>
      <point x="1336" y="1114" type="line" smooth="yes"/>
      <point x="1336" y="1260"/>
      <point x="1319" y="1360"/>
      <point x="1473" y="1366" type="curve"/>
      <point x="1473" y="1434" type="line"/>
    </contour>
    <contour>
      <point x="809" y="1434" type="move" name="top"/>
    </contour>
    <contour>
      <point x="781" y="0" type="move" name="bottom"/>
    </contour>
  </outline>
</glyph>
<glyph name="O" format="1">
  <advance width="1626"/>
  <unicode hex="004F"/>
  <outline>
    <contour>
      <point x="323" y="1467"/>
      <point x="94" y="1061"/>
      <point x="94" y="717" type="curve" smooth="yes"/>
      <point x="94" y="360"/>
      <point x="303" y="-33"/>
      <point x="823" y="-33" type="curve" smooth="yes"/>
      <point x="1306" y="-33"/>
      <point x="1536" y="377"/>
      <point x="1536" y="717" type="curve" smooth="yes"/>
      <point x="1536" y="1059"/>
      <point x="1306" y="1467"/>
      <point x="807" y="1467" type="curve" smooth="yes"/>
    </contour>
    <contour>
      <point x="1140" y="1385"/>
      <point x="1331" y="1014"/>
      <point x="1331" y="678" type="curve" smooth="yes"/>
      <point x="1331" y="377"/>
      <point x="1163" y="51"/>
      <point x="827" y="51" type="curve" smooth="yes"/>
      <point x="461" y="51"/>
      <point x="295" y="450"/>
      <point x="295" y="754" type="curve" smooth="yes"/>
      <point x="295" y="1057"/>
      <point x="463" y="1385"/>
      <point x="800" y="1385" type="curve" smooth="yes"/>
    </contour>
    <contour>
      <point x="796" y="1434" type="move" name="top"/>
    </contour>
  </outline>
</glyph>
<glyph name="P" format="1">
  <advance width="1241"/>
  <unicode hex="0050"/>
  <outline>
    <contour>
      <point x="410" y="1437"/>
      <point x="256" y="1436"/>
      <point x="113" y="1434" type="curve"/>
      <point x="113" y="1343" type="line"/>
      <point x="261" y="1352" type="line"/>
      <point x="256" y="1311"/>
      <point x="254" y="1260"/>
      <point x="254" y="1204" type="curve" smooth="yes"/>
      <point x="254" y="319" type="line" smooth="yes"/>
      <point x="254" y="174"/>
      <point x="267" y="74"/>
      <point x="113" y="68" type="curve"/>
      <point x="113" y="0" type="line"/>
      <point x="615" y="0" type="line"/>
      <point x="615" y="92" type="line"/>
      <point x="426" y="82" type="line"/>
      <point x="431" y="117"/>
      <point x="433" y="170"/>
      <point x="433" y="244" type="curve" smooth="yes"/>
      <point x="433" y="540" type="line"/>
      <point x="459" y="539"/>
      <point x="493" y="539"/>
      <point x="506" y="539" type="curve" smooth="yes"/>
      <point x="1067" y="539"/>
      <point x="1199" y="827"/>
      <point x="1188" y="1040" type="curve" smooth="yes"/>
      <point x="1176" y="1303"/>
      <point x="965" y="1437"/>
      <point x="570" y="1437" type="curve" smooth="yes"/>
    </contour>
    <contour>
      <point x="816" y="1357"/>
      <point x="990" y="1260"/>
      <point x="990" y="1001" type="curve" smooth="yes"/>
      <point x="990" y="762"/>
      <point x="799" y="618"/>
      <point x="566" y="618" type="curve" smooth="yes"/>
      <point x="515" y="618"/>
      <point x="484" y="618"/>
      <point x="433" y="625" type="curve"/>
      <point x="433" y="1114" type="line" smooth="yes"/>
      <point x="433" y="1260"/>
      <point x="420" y="1357"/>
      <point x="566" y="1357" type="curve" smooth="yes"/>
    </contour>
  </outline>
</glyph>
<glyph name="T" format="1">
  <advance width="1311"/>
  <unicode hex="0054"/>
  <outline>
    <contour>
      <point x="57" y="1434" type="line"/>
      <point x="45" y="1001" type="line"/>
      <point x="121" y="1001" type="line"/>
      <point x="121" y="1243"/>
      <point x="184" y="1355"/>
      <point x="356" y="1356" type="curve" smooth="yes"/>
      <point x="568" y="1357" type="line"/>
      <point x="565" y="319" type="line" smooth="yes"/>
      <point x="565" y="180"/>
      <point x="579" y="74"/>
      <point x="426" y="68" type="curve"/>
      <point x="426" y="0" type="line"/>
      <point x="907" y="0" type="line"/>
      <point x="907" y="90" type="line"/>
      <point x="737" y="82" type="line"/>
      <point x="741" y="117"/>
      <point x="743" y="170"/>
      <point x="743" y="244" type="curve" smooth="yes"/>
      <point x="746" y="1359" type="line"/>
      <point x="919" y="1360" type="line" smooth="yes"/>
      <point x="1130" y="1361"/>
      <point x="1182" y="1243"/>
      <point x="1186" y="1001" type="curve"/>
      <point x="1263" y="1001" type="line"/>
      <point x="1251" y="1434" type="line"/>
    </contour>
    <contour>
      <point x="656" y="717" type="move" name="center"/>
    </contour>
    <contour>
      <point x="738" y="0" type="move" name="bottom"/>
    </contour>
    <contour>
      <point x="656" y="1434" type="move" name="top"/>
    </contour>
  </outline>
</glyph>
<glyph name="X" format="1">
  <advance width="1329"/>
  <unicode hex="0058"/>
  <outline>
    <contour>
      <point x="872" y="1434" type="line"/>
      <point x="872" y="1343" type="line"/>
      <point x="1044" y="1352" type="line"/>
      <point x="1001" y="1313"/>
      <point x="932" y="1213"/>
      <point x="863" y="1114" type="curve" smooth="yes"/>
      <point x="666" y="830" type="line"/>
      <point x="559" y="976"/>
      <point x="461" y="1114"/>
      <point x="411" y="1196" type="curve" smooth="yes"/>
      <point x="364" y="1272"/>
      <point x="310" y="1355"/>
      <point x="458" y="1362" type="curve" smooth="yes"/>
      <point x="548" y="1366" type="line"/>
      <point x="548" y="1434" type="line"/>
      <point x="18" y="1434" type="line"/>
      <point x="18" y="1343" type="line"/>
      <point x="132" y="1348" type="line"/>
      <point x="177" y="1237"/>
      <point x="214" y="1197"/>
      <point x="571" y="694" type="curve"/>
      <point x="306" y="313" type="line" smooth="yes"/>
      <point x="212" y="178"/>
      <point x="155" y="94"/>
      <point x="24" y="68" type="curve"/>
      <point x="24" y="0" type="line"/>
      <point x="427" y="0" type="line"/>
      <point x="427" y="90" type="line"/>
      <point x="257" y="80" type="line"/>
      <point x="323" y="158"/>
      <point x="374" y="240"/>
      <point x="423" y="313" type="curve" smooth="yes"/>
      <point x="491" y="415"/>
      <point x="559" y="516"/>
      <point x="627" y="615" type="curve"/>
      <point x="751" y="441"/>
      <point x="865" y="302"/>
      <point x="927" y="217" type="curve" smooth="yes"/>
      <point x="976" y="150"/>
      <point x="999" y="61"/>
      <point x="841" y="68" type="curve"/>
      <point x="841" y="0" type="line"/>
      <point x="1343" y="0" type="line"/>
      <point x="1343" y="90" type="line"/>
      <point x="1224" y="86" type="line"/>
      <point x="1083" y="276" type="line" smooth="yes"/>
      <point x="1020" y="361"/>
      <point x="868" y="557"/>
      <point x="723" y="753" type="curve"/>
      <point x="954" y="1081" type="line" smooth="yes"/>
      <point x="1041" y="1205"/>
      <point x="1144" y="1348"/>
      <point x="1275" y="1366" type="curve"/>
      <point x="1275" y="1434" type="line"/>
    </contour>
  </outline>
</glyph>
<glyph name="e" format="1">
  <advance width="1110"/>
  <unicode hex="0065"/>
  <outline>
    <contour>
      <point x="293" y="1057"/>
      <point x="86" y="797"/>
      <point x="86" y="510" type="curve" smooth="yes"/>
      <point x="86" y="178"/>
      <point x="303" y="-33"/>
      <point x="586" y="-33" type="curve" smooth="yes"/>
      <point x="725" y="-33"/>
      <point x="917" y="31"/>
      <point x="1030" y="201" type="curve"/>
      <point x="980" y="242" type="line"/>
      <point x="912" y="145"/>
      <point x="762" y="72"/>
      <point x="635" y="72" type="curve" smooth="yes"/>
      <point x="395" y="72"/>
      <point x="295" y="278"/>
      <point x="297" y="592" type="curve"/>
      <point x="1018" y="604" type="line"/>
      <point x="1018" y="909"/>
      <point x="829" y="1057"/>
      <point x="602" y="1057" type="curve" smooth="yes"/>
    </contour>
    <contour>
      <point x="764" y="977"/>
      <point x="825" y="823"/>
      <point x="825" y="678" type="curve"/>
      <point x="303" y="678" type="line"/>
      <point x="336" y="889"/>
      <point x="444" y="977"/>
      <point x="604" y="977" type="curve" smooth="yes"/>
    </contour>
    <contour>
      <point x="796" y="10" type="move" name="ogonek"/>
    </contour>
    <contour>
      <point x="665" y="0" type="move" name="bottom"/>
    </contour>
    <contour>
      <point x="573" y="1024" type="move" name="top"/>
    </contour>
  </outline>
</glyph>
<glyph name="f" format="1">
  <advance width="692"/>
  <unicode hex="0066"/>
  <outline>
    <contour>
      <point x="318" y="1556"/>
      <point x="219" y="1370"/>
      <point x="219" y="1067" type="curve" smooth="yes"/>
      <point x="219" y="1024" type="line"/>
      <point x="51" y="1024" type="line"/>
      <point x="51" y="932" type="line"/>
      <point x="219" y="935" type="line"/>
      <point x="221" y="311" type="line" smooth="yes"/>
      <point x="221" y="164"/>
      <point x="226" y="61"/>
      <point x="101" y="61" type="curve"/>
      <point x="101" y="0" type="line"/>
      <point x="518" y="0" type="line"/>
      <point x="518" y="84" type="line"/>
      <point x="389" y="78" type="line"/>
      <point x="398" y="125"/>
      <point x="398" y="162"/>
      <point x="398" y="217" type="curve" smooth="yes"/>
      <point x="396" y="939" type="line"/>
      <point x="672" y="944" type="line"/>
      <point x="672" y="1024" type="line"/>
      <point x="396" y="1024" type="line"/>
      <point x="396" y="1239" type="line" smooth="yes"/>
      <point x="396" y="1356"/>
      <point x="430" y="1483"/>
      <point x="557" y="1483" type="curve" smooth="yes"/>
      <point x="586" y="1483"/>
      <point x="625" y="1473"/>
      <point x="645" y="1447" type="curve"/>
      <point x="637" y="1430"/>
      <point x="634" y="1413"/>
      <point x="634" y="1397" type="curve" smooth="yes"/>
      <point x="634" y="1365"/>
      <point x="657" y="1310"/>
      <point x="722" y="1312" type="curve" smooth="yes"/>
      <point x="776" y="1313"/>
      <point x="807" y="1354"/>
      <point x="807" y="1405" type="curve" smooth="yes"/>
      <point x="807" y="1512"/>
      <point x="676" y="1556"/>
      <point x="588" y="1556" type="curve" smooth="yes"/>
    </contour>
  </outline>
</glyph>
<glyph name="g" format="1">
  <advance width="1133"/>
  <unicode hex="0067"/>
  <outline>
    <contour>
      <point x="949" y="1180"/>
      <point x="849" y="1096"/>
      <point x="808" y="980" type="curve"/>
      <point x="732" y="1030"/>
      <point x="639" y="1057"/>
      <point x="548" y="1057" type="curve" smooth="yes"/>
      <point x="335" y="1057"/>
      <point x="117" y="898"/>
      <point x="117" y="652" type="curve" smooth="yes"/>
      <point x="117" y="509"/>
      <point x="199" y="399"/>
      <point x="323" y="340" type="curve"/>
      <point x="203" y="320"/>
      <point x="119" y="225"/>
      <point x="119" y="129" type="curve" smooth="yes"/>
      <point x="119" y="42"/>
      <point x="173" y="-5"/>
      <point x="261" y="-32" type="curve"/>
      <point x="178" y="-68"/>
      <point x="72" y="-153"/>
      <point x="72" y="-278" type="curve" smooth="yes"/>
      <point x="72" y="-414"/>
      <point x="214" y="-555"/>
      <point x="583" y="-555" type="curve" smooth="yes"/>
      <point x="825" y="-555"/>
      <point x="1085" y="-434"/>
      <point x="1085" y="-213" type="curve" smooth="yes"/>
      <point x="1085" y="8"/>
      <point x="896" y="80"/>
      <point x="581" y="94" type="curve" smooth="yes"/>
      <point x="393" y="102"/>
      <point x="277" y="111"/>
      <point x="257" y="176" type="curve" smooth="yes"/>
      <point x="236" y="244"/>
      <point x="311" y="301"/>
      <point x="411" y="301" type="curve" smooth="yes"/>
      <point x="465" y="301"/>
      <point x="497" y="291"/>
      <point x="548" y="291" type="curve" smooth="yes"/>
      <point x="778" y="291"/>
      <point x="982" y="455"/>
      <point x="982" y="686" type="curve" smooth="yes"/>
      <point x="982" y="780"/>
      <point x="939" y="868"/>
      <point x="872" y="930" type="curve"/>
      <point x="886" y="992"/>
      <point x="922" y="1055"/>
      <point x="992" y="1065" type="curve"/>
      <point x="1000" y="1025"/>
      <point x="1031" y="994"/>
      <point x="1077" y="993" type="curve" smooth="yes"/>
      <point x="1142" y="991"/>
      <point x="1166" y="1046"/>
      <point x="1166" y="1078" type="curve" smooth="yes"/>
      <point x="1166" y="1141"/>
      <point x="1126" y="1180"/>
      <point x="1057" y="1180" type="curve" smooth="yes"/>
    </contour>
    <contour>
      <point x="415" y="-61"/>
      <point x="487" y="-65"/>
      <point x="562" y="-67" type="curve" smooth="yes"/>
      <point x="788" y="-74"/>
      <point x="954" y="-104"/>
      <point x="954" y="-256" type="curve" smooth="yes"/>
      <point x="954" y="-373"/>
      <point x="816" y="-475"/>
      <point x="581" y="-475" type="curve" smooth="yes"/>
      <point x="370" y="-475"/>
      <point x="233" y="-389"/>
      <point x="233" y="-254" type="curve" smooth="yes"/>
      <point x="233" y="-175"/>
      <point x="276" y="-100"/>
      <point x="351" y="-51" type="curve"/>
    </contour>
    <contour>
      <point x="702" y="985"/>
      <point x="782" y="825"/>
      <point x="782" y="645" type="curve" smooth="yes"/>
      <point x="782" y="485"/>
      <point x="706" y="365"/>
      <point x="554" y="365" type="curve" smooth="yes"/>
      <point x="401" y="365"/>
      <point x="313" y="500"/>
      <point x="313" y="696" type="curve" smooth="yes"/>
      <point x="313" y="860"/>
      <point x="397" y="985"/>
      <point x="544" y="985" type="curve" smooth="yes"/>
    </contour>
    <contour>
      <point x="541" y="1024" type="move" name="top"/>
    </contour>
  </outline>
</glyph>
<glyph name="h" format="1">
  <advance width="1227"/>
  <unicode hex="0068"/>
  <outline>
    <contour>
      <point x="309" y="1546" type="line"/>
      <point x="278" y="1518"/>
      <point x="233" y="1491"/>
      <point x="53" y="1491" type="curve"/>
      <point x="53" y="1405" type="line"/>
      <point x="198" y="1413" type="line"/>
      <point x="192" y="1358"/>
      <point x="192" y="1323"/>
      <point x="192" y="1280" type="curve" smooth="yes"/>
      <point x="192" y="311" type="line" smooth="yes"/>
      <point x="192" y="164"/>
      <point x="194" y="61"/>
      <point x="69" y="61" type="curve"/>
      <point x="69" y="0" type="line"/>
      <point x="487" y="0" type="line"/>
      <point x="487" y="84" type="line"/>
      <point x="358" y="78" type="line"/>
      <point x="366" y="125"/>
      <point x="368" y="162"/>
      <point x="368" y="217" type="curve" smooth="yes"/>
      <point x="368" y="822" type="line"/>
      <point x="429" y="894"/>
      <point x="534" y="947"/>
      <point x="634" y="949" type="curve" smooth="yes"/>
      <point x="796" y="951"/>
      <point x="868" y="832"/>
      <point x="868" y="597" type="curve" smooth="yes"/>
      <point x="868" y="311" type="line" smooth="yes"/>
      <point x="868" y="164"/>
      <point x="872" y="61"/>
      <point x="747" y="61" type="curve"/>
      <point x="747" y="0" type="line"/>
      <point x="1165" y="0" type="line"/>
      <point x="1165" y="84" type="line"/>
      <point x="1036" y="78" type="line"/>
      <point x="1044" y="125"/>
      <point x="1044" y="162"/>
      <point x="1044" y="217" type="curve" smooth="yes"/>
      <point x="1042" y="599" type="line" smooth="yes"/>
      <point x="1040" y="912"/>
      <point x="942" y="1057"/>
      <point x="704" y="1057" type="curve" smooth="yes"/>
      <point x="587" y="1057"/>
      <point x="458" y="998"/>
      <point x="368" y="922" type="curve"/>
      <point x="368" y="1546" type="line"/>
    </contour>
    <contour>
      <point x="614" y="512" type="move" name="center"/>
    </contour>
    <contour>
      <point x="306" y="1439" type="move" name="top"/>
    </contour>
  </outline>
</glyph>
<glyph name="j" format="1">
  <advance width="526"/>
  <unicode hex="006A"/>
  <outline>
    <contour>
      <point x="312" y="1044" type="line"/>
      <point x="281" y="1015"/>
      <point x="236" y="989"/>
      <point x="56" y="989" type="curve"/>
      <point x="56" y="903" type="line"/>
      <point x="201" y="911" type="line"/>
      <point x="195" y="856"/>
      <point x="195" y="821"/>
      <point x="195" y="778" type="curve" smooth="yes"/>
      <point x="191" y="-177" type="line" smooth="yes"/>
      <point x="191" y="-291"/>
      <point x="177" y="-383"/>
      <point x="132" y="-426" type="curve" smooth="yes"/>
      <point x="101" y="-457"/>
      <point x="49" y="-473"/>
      <point x="-4" y="-449" type="curve"/>
      <point x="-3" y="-443"/>
      <point x="-3" y="-436"/>
      <point x="-3" y="-430" type="curve" smooth="yes"/>
      <point x="-3" y="-397"/>
      <point x="-25" y="-342"/>
      <point x="-92" y="-344" type="curve" smooth="yes"/>
      <point x="-147" y="-345"/>
      <point x="-180" y="-391"/>
      <point x="-180" y="-441" type="curve" smooth="yes"/>
      <point x="-180" y="-500"/>
      <point x="-131" y="-555"/>
      <point x="-18" y="-555" type="curve" smooth="yes"/>
      <point x="203" y="-555"/>
      <point x="371" y="-389"/>
      <point x="371" y="-7" type="curve" smooth="yes"/>
      <point x="371" y="1044" type="line"/>
    </contour>
    <component base="period" xOffset="40" yOffset="1278" xScale="0.92" yScale="0.92"/>
  </outline>
</glyph>
<glyph name="q" format="1">
  <advance width="1180"/>
  <unicode hex="0071"/>
  <outline>
    <contour>
      <point x="321" y="1057"/>
      <point x="86" y="831"/>
      <point x="86" y="489" type="curve" smooth="yes"/>
      <point x="86" y="172"/>
      <point x="289" y="-33"/>
      <point x="545" y="-33" type="curve" smooth="yes"/>
      <point x="675" y="-33"/>
      <point x="780" y="15"/>
      <point x="852" y="96" type="curve"/>
      <point x="852" y="-211" type="line" smooth="yes"/>
      <point x="852" y="-358"/>
      <point x="856" y="-461"/>
      <point x="731" y="-461" type="curve"/>
      <point x="731" y="-522" type="line"/>
      <point x="1149" y="-522" type="line"/>
      <point x="1149" y="-438" type="line"/>
      <point x="1020" y="-444" type="line"/>
      <point x="1028" y="-397"/>
      <point x="1028" y="-360"/>
      <point x="1028" y="-305" type="curve" smooth="yes"/>
      <point x="1026" y="1044" type="line"/>
      <point x="969" y="1044" type="line"/>
      <point x="896" y="963"/>
      <point x="779" y="1057"/>
      <point x="612" y="1057" type="curve" smooth="yes"/>
    </contour>
    <contour>
      <point x="792" y="982"/>
      <point x="852" y="900"/>
      <point x="852" y="735" type="curve" smooth="yes"/>
      <point x="852" y="198" type="line"/>
      <point x="796" y="120"/>
      <point x="708" y="68"/>
      <point x="618" y="68" type="curve" smooth="yes"/>
      <point x="416" y="68"/>
      <point x="297" y="276"/>
      <point x="297" y="539" type="curve" smooth="yes"/>
      <point x="297" y="803"/>
      <point x="417" y="982"/>
      <point x="617" y="982" type="curve" smooth="yes"/>
    </contour>
  </outline>
</glyph>
<glyph name="s" format="1">
  <advance width="948"/>
  <unicode hex="0073"/>
  <outline>
    <contour>
      <point x="181" y="1057"/>
      <point x="106" y="874"/>
      <point x="106" y="760" type="curve" smooth="yes"/>
      <point x="106" y="391"/>
      <point x="698" y="471"/>
      <point x="698" y="209" type="curve" smooth="yes"/>
      <point x="698" y="98"/>
      <point x="577" y="47"/>
      <point x="474" y="47" type="curve" smooth="yes"/>
      <point x="315" y="47"/>
      <point x="179" y="168"/>
      <point x="169" y="338" type="curve"/>
      <point x="106" y="338" type="line"/>
      <point x="118" y="-14" type="line"/>
      <point x="204" y="-14" type="line"/>
      <point x="197" y="57" type="line"/>
      <point x="264" y="10"/>
      <point x="372" y="-33"/>
      <point x="510" y="-33" type="curve" smooth="yes"/>
      <point x="684" y="-33"/>
      <point x="865" y="62"/>
      <point x="865" y="268" type="curve" smooth="yes"/>
      <point x="865" y="619"/>
      <point x="267" y="559"/>
      <point x="267" y="825" type="curve" smooth="yes"/>
      <point x="267" y="907"/>
      <point x="339" y="980"/>
      <point x="466" y="980" type="curve" smooth="yes"/>
      <point x="642" y="980"/>
      <point x="718" y="829"/>
      <point x="728" y="688" type="curve"/>
      <point x="792" y="688" type="line"/>
      <point x="792" y="1047" type="line"/>
      <point x="706" y="1047" type="line"/>
      <point x="711" y="969" type="line"/>
      <point x="627" y="1037"/>
      <point x="530" y="1057"/>
      <point x="456" y="1057" type="curve" smooth="yes"/>
    </contour>
    <contour>
      <point x="468" y="1024" type="move" name="top"/>
    </contour>
    <contour>
      <point x="589" y="0" type="move" name="bottom"/>
    </contour>
  </outline>
</glyph>
<glyph name="u" format="1">
  <advance width="1223"/>
  <unicode hex="0075"/>
  <outline>
    <contour>
      <point x="967" y="1044" type="line"/>
      <point x="936" y="1016"/>
      <point x="893" y="989"/>
      <point x="776" y="989" type="curve" smooth="yes"/>
      <point x="713" y="989" type="line"/>
      <point x="713" y="905" type="line"/>
      <point x="860" y="911" type="line"/>
      <point x="852" y="864"/>
      <point x="850" y="821"/>
      <point x="850" y="755" type="curve" smooth="yes"/>
      <point x="850" y="230" type="line"/>
      <point x="793" y="146"/>
      <point x="691" y="73"/>
      <point x="588" y="72" type="curve" smooth="yes"/>
      <point x="426" y="70"/>
      <point x="366" y="184"/>
      <point x="366" y="420" type="curve" smooth="yes"/>
      <point x="366" y="1044" type="line"/>
      <point x="307" y="1044" type="line"/>
      <point x="276" y="1016"/>
      <point x="233" y="989"/>
      <point x="117" y="989" type="curve" smooth="yes"/>
      <point x="53" y="989" type="line"/>
      <point x="53" y="905" type="line"/>
      <point x="194" y="911" type="line"/>
      <point x="186" y="864"/>
      <point x="186" y="821"/>
      <point x="186" y="778" type="curve" smooth="yes"/>
      <point x="186" y="414" type="line" smooth="yes"/>
      <point x="186" y="76"/>
      <point x="299" y="-33"/>
      <point x="522" y="-33" type="curve" smooth="yes"/>
      <point x="642" y="-33"/>
      <point x="772" y="38"/>
      <point x="856" y="123" type="curve"/>
      <point x="859" y="85"/>
      <point x="863" y="47"/>
      <point x="870" y="0" type="curve"/>
      <point x="1163" y="0" type="line"/>
      <point x="1163" y="86" type="line"/>
      <point x="1016" y="78" type="line"/>
      <point x="1022" y="133"/>
      <point x="1024" y="227"/>
      <point x="1024" y="270" type="curve" smooth="yes"/>
      <point x="1026" y="1044" type="line"/>
    </contour>
    <contour>
      <point x="1162" y="0" type="move" name="ogonek"/>
    </contour>
    <contour>
      <point x="585" y="1024" type="move" name="top"/>
    </contour>
  </outline>
</glyph>
<glyph name="v" format="1">
  <advance width="1034"/>
  <unicode hex="0076"/>
  <outline>
    <contour>
      <point x="704" y="1024" type="line"/>
      <point x="704" y="940" type="line"/>
      <point x="835" y="946" type="line"/>
      <point x="823" y="922"/>
      <point x="797" y="870"/>
      <point x="774" y="805" type="curve" smooth="yes"/>
      <point x="611" y="356" type="line" smooth="yes"/>
      <point x="595" y="311"/>
      <point x="577" y="264"/>
      <point x="563" y="224" type="curve"/>
      <point x="561" y="224" type="line"/>
      <point x="540" y="276"/>
      <point x="520" y="328"/>
      <point x="499" y="375" type="curve" smooth="yes"/>
      <point x="342" y="735" type="line" smooth="yes"/>
      <point x="290" y="854"/>
      <point x="264" y="963"/>
      <point x="389" y="963" type="curve"/>
      <point x="389" y="1024" type="line"/>
      <point x="12" y="1024" type="line"/>
      <point x="12" y="940" type="line"/>
      <point x="100" y="946" type="line"/>
      <point x="102" y="899"/>
      <point x="119" y="817"/>
      <point x="186" y="662" type="curve" smooth="yes"/>
      <point x="479" y="-6" type="line"/>
      <point x="561" y="-6" type="line"/>
      <point x="829" y="686" type="line" smooth="yes"/>
      <point x="901" y="870"/>
      <point x="938" y="963"/>
      <point x="1028" y="963" type="curve"/>
      <point x="1028" y="1024" type="line"/>
    </contour>
  </outline>
</glyph>
<glyph name="cent" format="1">
  <advance width="1087"/>
  <unicode hex="00A2"/>
  <outline>
    <contour>
      <point x="512" y="1274" type="line"/>
      <point x="513" y="1057" type="line"/>
      <point x="248" y="1009"/>
      <point x="74" y="748"/>
      <point x="74" y="494" type="curve" smooth="yes"/>
      <point x="74" y="190"/>
      <point x="265" y="-3"/>
      <point x="509" y="-33" type="curve"/>
      <point x="510" y="-274" type="line"/>
      <point x="629" y="-274" type="line"/>
      <point x="630" y="-33" type="line"/>
      <point x="760" y="-18"/>
      <point x="914" y="58"/>
      <point x="1010" y="208" type="curve"/>
      <point x="957" y="249" type="line"/>
      <point x="891" y="151"/>
      <point x="762" y="71"/>
      <point x="635" y="71" type="curve" smooth="yes"/>
      <point x="424" y="71"/>
      <point x="283" y="271"/>
      <point x="283" y="544" type="curve" smooth="yes"/>
      <point x="283" y="828"/>
      <point x="426" y="983"/>
      <point x="613" y="983" type="curve" smooth="yes"/>
      <point x="670" y="983"/>
      <point x="792" y="969"/>
      <point x="828" y="873" type="curve"/>
      <point x="804" y="848"/>
      <point x="797" y="817"/>
      <point x="797" y="790" type="curve" smooth="yes"/>
      <point x="797" y="755"/>
      <point x="821" y="696"/>
      <point x="892" y="698" type="curve" smooth="yes"/>
      <point x="953" y="699"/>
      <point x="987" y="748"/>
      <point x="987" y="806" type="curve" smooth="yes"/>
      <point x="987" y="932"/>
      <point x="851" y="1045"/>
      <point x="643" y="1057" type="curve"/>
      <point x="645" y="1274" type="line"/>
    </contour>
  </outline>
</glyph>
<glyph name="sterling" format="1">
  <advance width="1122"/>
  <unicode hex="00A3"/>
  <outline>
    <contour>
      <point x="386" y="1467"/>
      <point x="227" y="1290"/>
      <point x="227" y="1018" type="curve" smooth="yes"/>
      <point x="227" y="903"/>
      <point x="244" y="816"/>
      <point x="264" y="737" type="curve"/>
      <point x="128" y="737" type="line"/>
      <point x="128" y="639" type="line"/>
      <point x="291" y="639" type="line"/>
      <point x="311" y="566"/>
      <point x="327" y="495"/>
      <point x="327" y="408" type="curve" smooth="yes"/>
      <point x="327" y="332"/>
      <point x="304" y="269"/>
      <point x="274" y="221" type="curve"/>
      <point x="171" y="191"/>
      <point x="96" y="117"/>
      <point x="96" y="43" type="curve" smooth="yes"/>
      <point x="96" y="5"/>
      <point x="124" y="-33"/>
      <point x="173" y="-33" type="curve" smooth="yes"/>
      <point x="239" y="-33"/>
      <point x="304" y="57"/>
      <point x="317" y="162" type="curve"/>
      <point x="327" y="164"/>
      <point x="339" y="164"/>
      <point x="350" y="164" type="curve" smooth="yes"/>
      <point x="534" y="164"/>
      <point x="671" y="-33"/>
      <point x="843" y="-33" type="curve" smooth="yes"/>
      <point x="976" y="-33"/>
      <point x="1046" y="90"/>
      <point x="1052" y="254" type="curve"/>
      <point x="988" y="254" type="line"/>
      <point x="982" y="166"/>
      <point x="939" y="125"/>
      <point x="878" y="125" type="curve" smooth="yes"/>
      <point x="786" y="125"/>
      <point x="646" y="248"/>
      <point x="468" y="248" type="curve" smooth="yes"/>
      <point x="432" y="248"/>
      <point x="396" y="245"/>
      <point x="362" y="240" type="curve"/>
      <point x="424" y="316"/>
      <point x="468" y="399"/>
      <point x="468" y="487" type="curve" smooth="yes"/>
      <point x="468" y="540"/>
      <point x="463" y="590"/>
      <point x="456" y="639" type="curve"/>
      <point x="749" y="639" type="line"/>
      <point x="749" y="737" type="line"/>
      <point x="439" y="737" type="line"/>
      <point x="417" y="850"/>
      <point x="390" y="961"/>
      <point x="390" y="1100" type="curve" smooth="yes"/>
      <point x="390" y="1251"/>
      <point x="468" y="1389"/>
      <point x="622" y="1389" type="curve" smooth="yes"/>
      <point x="718" y="1389"/>
      <point x="773" y="1341"/>
      <point x="788" y="1288" type="curve"/>
      <point x="766" y="1264"/>
      <point x="762" y="1234"/>
      <point x="762" y="1219" type="curve" smooth="yes"/>
      <point x="762" y="1188"/>
      <point x="783" y="1137"/>
      <point x="844" y="1139" type="curve" smooth="yes"/>
      <point x="896" y="1140"/>
      <point x="926" y="1180"/>
      <point x="926" y="1228" type="curve" smooth="yes"/>
      <point x="926" y="1322"/>
      <point x="847" y="1467"/>
      <point x="606" y="1467" type="curve" smooth="yes"/>
    </contour>
  </outline>
</glyph>
<glyph name="yen" format="1">
  <advance width="1444"/>
  <unicode hex="00A5"/>
  <outline>
    <contour>
      <point x="970" y="1434" type="line"/>
      <point x="970" y="1343" type="line"/>
      <point x="1132" y="1350" type="line"/>
      <point x="1093" y="1307"/>
      <point x="1054" y="1233"/>
      <point x="1034" y="1194" type="curve" smooth="yes"/>
      <point x="946" y="1028"/>
      <point x="868" y="883"/>
      <point x="772" y="696" type="curve"/>
      <point x="768" y="696" type="line"/>
      <point x="651" y="860"/>
      <point x="579" y="981"/>
      <point x="477" y="1143" type="curve" smooth="yes"/>
      <point x="395" y="1274"/>
      <point x="397" y="1366"/>
      <point x="585" y="1366" type="curve"/>
      <point x="585" y="1434" type="line"/>
      <point x="57" y="1434" type="line"/>
      <point x="57" y="1343" type="line"/>
      <point x="184" y="1348" type="line"/>
      <point x="194" y="1296"/>
      <point x="225" y="1225"/>
      <point x="295" y="1116" type="curve" smooth="yes"/>
      <point x="590" y="648" type="line"/>
      <point x="388" y="649" type="line"/>
      <point x="388" y="553" type="line"/>
      <point x="649" y="554" type="line"/>
      <point x="650" y="553" type="line"/>
      <point x="649" y="426" type="line"/>
      <point x="388" y="428" type="line"/>
      <point x="388" y="332" type="line"/>
      <point x="649" y="333" type="line"/>
      <point x="649" y="319" type="line" smooth="yes"/>
      <point x="649" y="180"/>
      <point x="663" y="74"/>
      <point x="510" y="68" type="curve"/>
      <point x="510" y="0" type="line"/>
      <point x="991" y="0" type="line"/>
      <point x="991" y="90" type="line"/>
      <point x="821" y="82" type="line"/>
      <point x="825" y="117"/>
      <point x="827" y="170"/>
      <point x="827" y="244" type="curve" smooth="yes"/>
      <point x="826" y="244"/>
      <point x="826" y="284"/>
      <point x="826" y="334" type="curve"/>
      <point x="1094" y="336" type="line"/>
      <point x="1094" y="424" type="line"/>
      <point x="826" y="425" type="line"/>
      <point x="827" y="471"/>
      <point x="827" y="516"/>
      <point x="827" y="555" type="curve"/>
      <point x="1094" y="557" type="line"/>
      <point x="1094" y="645" type="line"/>
      <point x="845" y="646" type="line"/>
      <point x="1087" y="1102" type="line" smooth="yes"/>
      <point x="1181" y="1276"/>
      <point x="1253" y="1358"/>
      <point x="1388" y="1366" type="curve"/>
      <point x="1388" y="1434" type="line"/>
    </contour>
  </outline>
</glyph>
<glyph name="dieresis" format="1">
  <advance width="793"/>
  <unicode hex="00A8"/>
  <outline>
    <contour>
      <point x="514" y="1496"/>
      <point x="465" y="1440"/>
      <point x="465" y="1372" type="curve" smooth="yes"/>
      <point x="465" y="1305"/>
      <point x="512" y="1251"/>
      <point x="567" y="1251" type="curve" smooth="yes"/>
      <point x="621" y="1251"/>
      <point x="669" y="1305"/>
      <point x="669" y="1372" type="curve" smooth="yes"/>
      <point x="669" y="1440"/>
      <point x="626" y="1496"/>
      <point x="568" y="1496" type="curve" smooth="yes"/>
    </contour>
    <contour>
      <point x="172" y="1496"/>
      <point x="123" y="1440"/>
      <point x="123" y="1372" type="curve" smooth="yes"/>
      <point x="123" y="1305"/>
      <point x="170" y="1251"/>
      <point x="225" y="1251" type="curve" smooth="yes"/>
      <point x="279" y="1251"/>
      <point x="327" y="1305"/>
      <point x="327" y="1372" type="curve" smooth="yes"/>
      <point x="327" y="1440"/>
      <point x="284" y="1496"/>
      <point x="226" y="1496" type="curve" smooth="yes"/>
    </contour>
    <contour>
      <point x="396" y="1024" type="move" name="_top"/>
    </contour>
  </outline>
</glyph>
<glyph name="Icircumflex" format="1">
  <advance width="686"/>
  <unicode hex="00CE"/>
  <outline>
    <contour>
      <point x="359" y="1907" type="line"/>
      <point x="-18" y="1616" type="line"/>
      <point x="23" y="1550" type="line"/>
      <point x="351" y="1729" type="line"/>
      <point x="355" y="1729" type="line"/>
      <point x="674" y="1548" type="line"/>
      <point x="719" y="1618" type="line"/>
      <point x="363" y="1907" type="line"/>
    </contour>
    <component base="I" xOffset="-1"/>
  </outline>
</glyph>
<glyph name="Eth" format="1">
  <advance width="1528"/>
  <unicode hex="00D0"/>
  <outline>
    <contour>
      <point x="39" y="772" type="line"/>
      <point x="39" y="666" type="line"/>
      <point x="684" y="674" type="line"/>
      <point x="684" y="772" type="line"/>
    </contour>
    <component base="D" xOffset="2"/>
  </outline>
</glyph>
<glyph name="multiply" format="1">
  <advance width="1130"/>
  <unicode hex="00D7"/>
  <outline>
    <contour>
      <point x="567" y="727" type="line"/>
      <point x="210" y="1083" type="line"/>
      <point x="115" y="991" type="line"/>
      <point x="474" y="635" type="line"/>
      <point x="111" y="279" type="line"/>
      <point x="199" y="190" type="line"/>
      <point x="561" y="549" type="line"/>
      <point x="931" y="182" type="line"/>
      <point x="1023" y="274" type="line"/>
      <point x="654" y="641" type="line"/>
      <point x="1023" y="1006" type="line"/>
      <point x="941" y="1094" type="line"/>
    </contour>
  </outline>
</glyph>
<glyph name="germandbls" format="1">
  <advance width="1395"/>
  <unicode hex="00DF"/>
  <outline>
    <contour>
      <point x="386" y="1556"/>
      <point x="219" y="1330"/>
      <point x="219" y="1026" type="curve" smooth="yes"/>
      <point x="219" y="1024" type="line"/>
      <point x="51" y="1024" type="line"/>
      <point x="51" y="932" type="line"/>
      <point x="219" y="935" type="line"/>
      <point x="221" y="311" type="line" smooth="yes"/>
      <point x="221" y="164"/>
      <point x="226" y="61"/>
      <point x="101" y="61" type="curve"/>
      <point x="101" y="0" type="line"/>
      <point x="518" y="0" type="line"/>
      <point x="518" y="84" type="line"/>
      <point x="389" y="78" type="line"/>
      <point x="398" y="125"/>
      <point x="398" y="162"/>
      <point x="398" y="217" type="curve" smooth="yes"/>
      <point x="396" y="938" type="line" smooth="yes"/>
      <point x="396" y="1094"/>
      <point x="406" y="1217"/>
      <point x="451" y="1309" type="curve" smooth="yes"/>
      <point x="500" y="1407"/>
      <point x="582" y="1466"/>
      <point x="705" y="1469" type="curve" smooth="yes"/>
      <point x="811" y="1471"/>
      <point x="1016" y="1452"/>
      <point x="1009" y="1057" type="curve"/>
      <point x="768" y="1062"/>
      <point x="637" y="944"/>
      <point x="637" y="760" type="curve" smooth="yes"/>
      <point x="637" y="424"/>
      <point x="1166" y="455"/>
      <point x="1166" y="213" type="curve" smooth="yes"/>
      <point x="1166" y="104"/>
      <point x="1078" y="47"/>
      <point x="986" y="47" type="curve" smooth="yes"/>
      <point x="827" y="47"/>
      <point x="735" y="166"/>
      <point x="725" y="336" type="curve"/>
      <point x="662" y="336" type="line"/>
      <point x="674" y="-16" type="line"/>
      <point x="760" y="-16" type="line"/>
      <point x="754" y="33" type="line"/>
      <point x="825" y="-11"/>
      <point x="930" y="-33"/>
      <point x="990" y="-33" type="curve" smooth="yes"/>
      <point x="1197" y="-33"/>
      <point x="1338" y="63"/>
      <point x="1338" y="270" type="curve" smooth="yes"/>
      <point x="1338" y="584"/>
      <point x="799" y="580"/>
      <point x="799" y="825" type="curve" smooth="yes"/>
      <point x="799" y="1010"/>
      <point x="1057" y="987"/>
      <point x="1180" y="979" type="curve"/>
      <point x="1183" y="1003"/>
      <point x="1185" y="1023"/>
      <point x="1186" y="1039" type="curve" smooth="yes"/>
      <point x="1204" y="1487"/>
      <point x="867" y="1556"/>
      <point x="712" y="1556" type="curve" smooth="yes"/>
    </contour>
  </outline>
</glyph>
<glyph name="ae" format="1">
  <advance width="1591"/>
  <unicode hex="00E6"/>
  <outline>
    <contour>
      <point x="987" y="1057"/>
      <point x="875" y="984"/>
      <point x="799" y="880" type="curve"/>
      <point x="750" y="990"/>
      <point x="653" y="1057"/>
      <point x="516" y="1057" type="curve" smooth="yes"/>
      <point x="280" y="1057"/>
      <point x="136" y="927"/>
      <point x="136" y="804" type="curve" smooth="yes"/>
      <point x="136" y="743"/>
      <point x="170" y="707"/>
      <point x="221" y="706" type="curve" smooth="yes"/>
      <point x="286" y="705"/>
      <point x="310" y="761"/>
      <point x="310" y="793" type="curve" smooth="yes"/>
      <point x="310" y="809"/>
      <point x="301" y="843"/>
      <point x="282" y="860" type="curve"/>
      <point x="311" y="934"/>
      <point x="396" y="982"/>
      <point x="486" y="982" type="curve" smooth="yes"/>
      <point x="671" y="982"/>
      <point x="689" y="834"/>
      <point x="689" y="688" type="curve" smooth="yes"/>
      <point x="689" y="563" type="line"/>
      <point x="416" y="567"/>
      <point x="70" y="457"/>
      <point x="70" y="205" type="curve" smooth="yes"/>
      <point x="70" y="68"/>
      <point x="183" y="-33"/>
      <point x="369" y="-33" type="curve" smooth="yes"/>
      <point x="516" y="-33"/>
      <point x="653" y="19"/>
      <point x="757" y="161" type="curve"/>
      <point x="759" y="161" type="line"/>
      <point x="835" y="25"/>
      <point x="964" y="-33"/>
      <point x="1125" y="-33" type="curve" smooth="yes"/>
      <point x="1264" y="-33"/>
      <point x="1395" y="31"/>
      <point x="1508" y="201" type="curve"/>
      <point x="1457" y="242" type="line"/>
      <point x="1389" y="145"/>
      <point x="1301" y="72"/>
      <point x="1174" y="72" type="curve" smooth="yes"/>
      <point x="986" y="72"/>
      <point x="846" y="256"/>
      <point x="871" y="592" type="curve"/>
      <point x="1496" y="604" type="line"/>
      <point x="1494" y="930"/>
      <point x="1340" y="1057"/>
      <point x="1133" y="1057" type="curve" smooth="yes"/>
    </contour>
    <contour>
      <point x="689" y="414"/>
      <point x="700" y="275"/>
      <point x="707" y="219" type="curve"/>
      <point x="627" y="129"/>
      <point x="530" y="76"/>
      <point x="408" y="84" type="curve" smooth="yes"/>
      <point x="343" y="88"/>
      <point x="269" y="129"/>
      <point x="265" y="230" type="curve" smooth="yes"/>
      <point x="258" y="421"/>
      <point x="499" y="486"/>
      <point x="686" y="493" type="curve"/>
    </contour>
    <contour>
      <point x="1285" y="977"/>
      <point x="1311" y="823"/>
      <point x="1311" y="678" type="curve"/>
      <point x="885" y="678" type="line"/>
      <point x="904" y="840"/>
      <point x="965" y="977"/>
      <point x="1125" y="977" type="curve" smooth="yes"/>
    </contour>
  </outline>
</glyph>
<glyph name="thorn" format="1">
  <advance width="1182"/>
  <unicode hex="00FE"/>
  <outline>
    <contour>
      <point x="270" y="1546" type="line"/>
      <point x="239" y="1518"/>
      <point x="198" y="1491"/>
      <point x="18" y="1491" type="curve"/>
      <point x="18" y="1405" type="line"/>
      <point x="163" y="1413" type="line"/>
      <point x="155" y="1366"/>
      <point x="155" y="1323"/>
      <point x="155" y="1280" type="curve" smooth="yes"/>
      <point x="151" y="-211" type="line" smooth="yes"/>
      <point x="149" y="-358"/>
      <point x="155" y="-461"/>
      <point x="30" y="-461" type="curve"/>
      <point x="30" y="-522" type="line"/>
      <point x="448" y="-522" type="line"/>
      <point x="448" y="-438" type="line"/>
      <point x="319" y="-444" type="line"/>
      <point x="327" y="-397"/>
      <point x="327" y="-360"/>
      <point x="327" y="-305" type="curve" smooth="yes"/>
      <point x="327" y="31" type="line"/>
      <point x="395" y="-13"/>
      <point x="476" y="-33"/>
      <point x="571" y="-33" type="curve" smooth="yes"/>
      <point x="857" y="-33"/>
      <point x="1093" y="192"/>
      <point x="1093" y="541" type="curve" smooth="yes"/>
      <point x="1093" y="858"/>
      <point x="884" y="1057"/>
      <point x="636" y="1057" type="curve" smooth="yes"/>
      <point x="523" y="1057"/>
      <point x="411" y="1013"/>
      <point x="328" y="947" type="curve"/>
      <point x="329" y="1546" type="line"/>
    </contour>
    <contour>
      <point x="790" y="957"/>
      <point x="882" y="731"/>
      <point x="882" y="510" type="curve" smooth="yes"/>
      <point x="882" y="239"/>
      <point x="761" y="49"/>
      <point x="567" y="49" type="curve" smooth="yes"/>
      <point x="478" y="49"/>
      <point x="395" y="76"/>
      <point x="327" y="127" type="curve"/>
      <point x="328" y="852" type="line"/>
      <point x="387" y="914"/>
      <point x="473" y="957"/>
      <point x="567" y="957" type="curve" smooth="yes"/>
    </contour>
  </outline>
</glyph>
<glyph name="dotlessi" format="1">
  <advance width="575"/>
  <unicode hex="0131"/>
  <outline>
    <contour>
      <point x="328" y="1044" type="line"/>
      <point x="297" y="1016"/>
      <point x="254" y="989"/>
      <point x="74" y="989" type="curve"/>
      <point x="74" y="903" type="line"/>
      <point x="219" y="911" type="line"/>
      <point x="213" y="856"/>
      <point x="211" y="821"/>
      <point x="211" y="778" type="curve" smooth="yes"/>
      <point x="211" y="311" type="line" smooth="yes"/>
      <point x="211" y="164"/>
      <point x="215" y="61"/>
      <point x="90" y="61" type="curve"/>
      <point x="90" y="0" type="line"/>
      <point x="508" y="0" type="line"/>
      <point x="508" y="84" type="line"/>
      <point x="379" y="78" type="line"/>
      <point x="387" y="125"/>
      <point x="387" y="162"/>
      <point x="387" y="217" type="curve" smooth="yes"/>
      <point x="387" y="1044" type="line"/>
    </contour>
  </outline>
</glyph>
<glyph name="florin" format="1">
  <advance width="702"/>
  <unicode hex="0192"/>
  <outline>
    <contour>
      <point x="237" y="1556"/>
      <point x="240" y="999"/>
      <point x="201" y="501" type="curve" smooth="yes"/>
      <point x="162" y="3"/>
      <point x="172" y="-475"/>
      <point x="-21" y="-475" type="curve" smooth="yes"/>
      <point x="-35" y="-475"/>
      <point x="-62" y="-473"/>
      <point x="-79" y="-460" type="curve"/>
      <point x="-72" y="-402"/>
      <point x="-105" y="-354"/>
      <point x="-160" y="-354" type="curve" smooth="yes"/>
      <point x="-219" y="-354"/>
      <point x="-248" y="-394"/>
      <point x="-248" y="-448" type="curve" smooth="yes"/>
      <point x="-248" y="-514"/>
      <point x="-179" y="-555"/>
      <point x="-90" y="-555" type="curve" smooth="yes"/>
      <point x="332" y="-555"/>
      <point x="330" y="-14"/>
      <point x="369" y="483" type="curve" smooth="yes"/>
      <point x="408" y="980"/>
      <point x="381" y="1459"/>
      <point x="588" y="1477" type="curve" smooth="yes"/>
      <point x="611" y="1479"/>
      <point x="636" y="1476"/>
      <point x="649" y="1468" type="curve"/>
      <point x="639" y="1408"/>
      <point x="674" y="1362"/>
      <point x="731" y="1362" type="curve" smooth="yes"/>
      <point x="786" y="1362"/>
      <point x="813" y="1403"/>
      <point x="813" y="1448" type="curve" smooth="yes"/>
      <point x="813" y="1526"/>
      <point x="726" y="1556"/>
      <point x="661" y="1556" type="curve" smooth="yes"/>
    </contour>
    <contour>
      <point x="68" y="1026" type="line"/>
      <point x="58" y="938" type="line"/>
      <point x="690" y="946" type="line"/>
      <point x="696" y="1026" type="line"/>
    </contour>
  </outline>
</glyph>
<glyph name="circumflex" format="1">
  <advance width="819"/>
  <unicode hex="02C6"/>
  <outline>
    <contour>
      <point x="418" y="1593" type="line"/>
      <point x="92" y="1268" type="line"/>
      <point x="143" y="1208" type="line"/>
      <point x="408" y="1417" type="line"/>
      <point x="412" y="1417" type="line"/>
      <point x="672" y="1194" type="line"/>
      <point x="727" y="1260" type="line"/>
      <point x="422" y="1593" type="line"/>
    </contour>
    <contour>
      <point x="410" y="1024" type="move" name="_top"/>
    </contour>
  </outline>
</glyph>
<glyph name="ring" format="1">
  <advance width="651"/>
  <unicode hex="02DA"/>
  <outline>
    <contour>
      <point x="223" y="1559"/>
      <point x="121" y="1475"/>
      <point x="125" y="1354" type="curve" smooth="yes"/>
      <point x="129" y="1225"/>
      <point x="229" y="1167"/>
      <point x="328" y="1167" type="curve" smooth="yes"/>
      <point x="426" y="1167"/>
      <point x="530" y="1247"/>
      <point x="526" y="1374" type="curve" smooth="yes"/>
      <point x="522" y="1501"/>
      <point x="420" y="1559"/>
      <point x="324" y="1559" type="curve" smooth="yes"/>
    </contour>
    <contour>
      <point x="383" y="1497"/>
      <point x="418" y="1438"/>
      <point x="418" y="1352" type="curve" smooth="yes"/>
      <point x="418" y="1280"/>
      <point x="383" y="1233"/>
      <point x="334" y="1231" type="curve" smooth="yes"/>
      <point x="270" y="1229"/>
      <point x="233" y="1292"/>
      <point x="233" y="1372" type="curve" smooth="yes"/>
      <point x="233" y="1444"/>
      <point x="270" y="1493"/>
      <point x="324" y="1495" type="curve" smooth="yes"/>
    </contour>
    <contour>
      <point x="325" y="1024" type="move" name="_top"/>
    </contour>
  </outline>
</glyph>
<glyph name="commaaccent" format="1">
  <advance width="600"/>
  <unicode hex="0326"/>
  <outline>
    <contour>
      <point x="242" y="-147" type="line"/>
      <point x="265" y="-262"/>
      <point x="281" y="-328"/>
      <point x="192" y="-491" type="curve"/>
      <point x="246" y="-531" type="line"/>
      <point x="343" y="-434"/>
      <point x="407" y="-325"/>
      <point x="407" y="-221" type="curve" smooth="yes"/>
      <point x="407" y="-185"/>
      <point x="399" y="-149"/>
      <point x="383" y="-115" type="curve"/>
    </contour>
    <contour>
      <point x="361" y="0" type="move" name="_bottom"/>
    </contour>
  </outline>
</glyph>
<glyph name="Omega" format="1">
  <advance width="1599"/>
  <unicode hex="03A9"/>
  <outline>
    <contour>
      <point x="337" y="1467"/>
      <point x="117" y="1100"/>
      <point x="117" y="776" type="curve" smooth="yes"/>
      <point x="117" y="468"/>
      <point x="342" y="210"/>
      <point x="615" y="135" type="curve"/>
      <point x="615" y="133" type="line"/>
      <point x="470" y="133" type="line" smooth="yes"/>
      <point x="296" y="133"/>
      <point x="218" y="158"/>
      <point x="218" y="276" type="curve"/>
      <point x="156" y="276" type="line"/>
      <point x="169" y="0" type="line"/>
      <point x="705" y="0" type="line"/>
      <point x="705" y="154" type="line"/>
      <point x="527" y="176"/>
      <point x="318" y="389"/>
      <point x="318" y="772" type="curve" smooth="yes"/>
      <point x="318" y="1075"/>
      <point x="486" y="1385"/>
      <point x="797" y="1385" type="curve" smooth="yes"/>
      <point x="1117" y="1385"/>
      <point x="1277" y="1053"/>
      <point x="1270" y="717" type="curve" smooth="yes"/>
      <point x="1264" y="416"/>
      <point x="1082" y="199"/>
      <point x="910" y="154" type="curve"/>
      <point x="910" y="0" type="line"/>
      <point x="1453" y="0" type="line"/>
      <point x="1465" y="276" type="line"/>
      <point x="1404" y="276" type="line"/>
      <point x="1404" y="158"/>
      <point x="1326" y="133"/>
      <point x="1152" y="133" type="curve" smooth="yes"/>
      <point x="982" y="133" type="line"/>
      <point x="982" y="135" type="line"/>
      <point x="1216" y="223"/>
      <point x="1477" y="469"/>
      <point x="1477" y="776" type="curve" smooth="yes"/>
      <point x="1477" y="1098"/>
      <point x="1279" y="1467"/>
      <point x="799" y="1467" type="curve" smooth="yes"/>
    </contour>
  </outline>
</glyph>
<glyph name="E-cy" format="1">
  <advance width="1432"/>
  <unicode hex="0404"/>
  <outline>
    <contour>
      <point x="328" y="1467"/>
      <point x="94" y="1079"/>
      <point x="94" y="694" type="curve" smooth="yes"/>
      <point x="94" y="287"/>
      <point x="379" y="-33"/>
      <point x="790" y="-33" type="curve" smooth="yes"/>
      <point x="958" y="-33"/>
      <point x="1194" y="23"/>
      <point x="1370" y="266" type="curve"/>
      <point x="1317" y="309" type="line"/>
      <point x="1206" y="156"/>
      <point x="1022" y="74"/>
      <point x="844" y="74" type="curve" smooth="yes"/>
      <point x="541" y="74"/>
      <point x="295" y="338"/>
      <point x="295" y="725" type="curve" smooth="yes"/>
      <point x="295" y="1126"/>
      <point x="528" y="1383"/>
      <point x="819" y="1383" type="curve" smooth="yes"/>
      <point x="1057" y="1383"/>
      <point x="1216" y="1233"/>
      <point x="1245" y="977" type="curve"/>
      <point x="1319" y="977" type="line"/>
      <point x="1319" y="1452" type="line"/>
      <point x="1208" y="1452" type="line"/>
      <point x="1218" y="1342" type="line"/>
      <point x="1092" y="1426"/>
      <point x="959" y="1467"/>
      <point x="805" y="1467" type="curve" smooth="yes"/>
    </contour>
    <contour>
      <point x="970" y="961" type="line"/>
      <point x="985" y="784" type="line"/>
      <point x="237" y="786" type="line"/>
      <point x="237" y="704" type="line"/>
      <point x="750" y="711" type="line" smooth="yes"/>
      <point x="924" y="713"/>
      <point x="994" y="711"/>
      <point x="994" y="530" type="curve"/>
      <point x="1061" y="530" type="line"/>
      <point x="1061" y="961" type="line"/>
    </contour>
  </outline>
</glyph>
<glyph name="Nje-cy" format="1">
  <advance width="2081"/>
  <unicode hex="040A"/>
  <outline>
    <contour>
      <point x="984" y="1434" type="line"/>
      <point x="984" y="1343" type="line"/>
      <point x="1132" y="1352" type="line"/>
      <point x="1128" y="1311"/>
      <point x="1126" y="1260"/>
      <point x="1126" y="1204" type="curve" smooth="yes"/>
      <point x="1126" y="319" type="line" smooth="yes"/>
      <point x="1127" y="171"/>
      <point x="1135" y="72"/>
      <point x="985" y="68" type="curve"/>
      <point x="985" y="0" type="line"/>
      <point x="1533" y="0" type="line" smooth="yes"/>
      <point x="1810" y="0"/>
      <point x="2016" y="149"/>
      <point x="2016" y="437" type="curve" smooth="yes"/>
      <point x="2016" y="678"/>
      <point x="1870" y="859"/>
      <point x="1420" y="839" type="curve" smooth="yes"/>
      <point x="1305" y="834" type="line"/>
      <point x="1305" y="1114" type="line" smooth="yes"/>
      <point x="1305" y="1260"/>
      <point x="1293" y="1360"/>
      <point x="1446" y="1366" type="curve"/>
      <point x="1446" y="1434" type="line"/>
    </contour>
    <contour>
      <point x="113" y="1434" type="line"/>
      <point x="113" y="1343" type="line"/>
      <point x="261" y="1352" type="line"/>
      <point x="256" y="1311"/>
      <point x="254" y="1260"/>
      <point x="254" y="1204" type="curve" smooth="yes"/>
      <point x="254" y="319" type="line" smooth="yes"/>
      <point x="254" y="174"/>
      <point x="267" y="74"/>
      <point x="113" y="68" type="curve"/>
      <point x="113" y="0" type="line"/>
      <point x="574" y="0" type="line"/>
      <point x="574" y="90" type="line"/>
      <point x="426" y="82" type="line"/>
      <point x="431" y="117"/>
      <point x="433" y="170"/>
      <point x="433" y="244" type="curve" smooth="yes"/>
      <point x="433" y="746" type="line"/>
      <point x="1142" y="755" type="line"/>
      <point x="1142" y="836" type="line"/>
      <point x="433" y="836" type="line"/>
      <point x="433" y="1114" type="line" smooth="yes"/>
      <point x="433" y="1260"/>
      <point x="420" y="1360"/>
      <point x="574" y="1366" type="curve"/>
      <point x="574" y="1434" type="line"/>
    </contour>
    <contour>
      <point x="1652" y="761"/>
      <point x="1818" y="689"/>
      <point x="1818" y="429" type="curve" smooth="yes"/>
      <point x="1818" y="184"/>
      <point x="1676" y="78"/>
      <point x="1465" y="78" type="curve" smooth="yes"/>
      <point x="1439" y="78"/>
      <point x="1362" y="76"/>
      <point x="1298" y="82" type="curve"/>
      <point x="1303" y="117"/>
      <point x="1305" y="168"/>
      <point x="1305" y="242" type="curve" smooth="yes"/>
      <point x="1305" y="755" type="line"/>
      <point x="1370" y="759"/>
      <point x="1384" y="761"/>
      <point x="1465" y="761" type="curve" smooth="yes"/>
    </contour>
  </outline>
</glyph>
<glyph name="Dzhe-cy" format="1">
  <advance width="1578"/>
  <unicode hex="040F"/>
  <outline>
    <contour>
      <point x="848" y="83" type="line"/>
      <point x="630" y="0" type="line"/>
      <point x="765" y="0"/>
      <point x="793" y="-160"/>
      <point x="793" y="-364" type="curve"/>
      <point x="878" y="-364" type="line"/>
      <point x="878" y="84" type="line"/>
    </contour>
    <component base="Pe-cy" xOffset="1578" yOffset="1434" xScale="-1" yScale="-1"/>
  </outline>
</glyph>
<glyph name="Be-cy" format="1">
  <advance width="1274"/>
  <unicode hex="0411"/>
  <outline>
    <contour>
      <point x="113" y="1434" type="line"/>
      <point x="113" y="1343" type="line"/>
      <point x="261" y="1352" type="line"/>
      <point x="256" y="1311"/>
      <point x="254" y="1260"/>
      <point x="254" y="1204" type="curve" smooth="yes"/>
      <point x="254" y="330" type="line" smooth="yes"/>
      <point x="254" y="176"/>
      <point x="267" y="72"/>
      <point x="113" y="68" type="curve"/>
      <point x="113" y="0" type="line"/>
      <point x="711" y="0" type="line" smooth="yes"/>
      <point x="988" y="0"/>
      <point x="1194" y="154"/>
      <point x="1194" y="416" type="curve" smooth="yes"/>
      <point x="1194" y="663"/>
      <point x="1048" y="831"/>
      <point x="598" y="818" type="curve" smooth="yes"/>
      <point x="433" y="814" type="line"/>
      <point x="433" y="1106" type="line" smooth="yes"/>
      <point x="433" y="1247"/>
      <point x="421" y="1354"/>
      <point x="574" y="1358" type="curve" smooth="yes"/>
      <point x="723" y="1362" type="line" smooth="yes"/>
      <point x="877" y="1366"/>
      <point x="1006" y="1317"/>
      <point x="1006" y="1075" type="curve"/>
      <point x="1074" y="1075" type="line"/>
      <point x="1063" y="1434" type="line"/>
    </contour>
    <contour>
      <point x="830" y="741"/>
      <point x="996" y="671"/>
      <point x="996" y="404" type="curve" smooth="yes"/>
      <point x="996" y="187"/>
      <point x="854" y="78"/>
      <point x="643" y="78" type="curve" smooth="yes"/>
      <point x="617" y="78"/>
      <point x="490" y="76"/>
      <point x="426" y="82" type="curve"/>
      <point x="431" y="117"/>
      <point x="433" y="168"/>
      <point x="433" y="242" type="curve" smooth="yes"/>
      <point x="433" y="735" type="line"/>
      <point x="498" y="739"/>
      <point x="562" y="741"/>
      <point x="643" y="741" type="curve" smooth="yes"/>
    </contour>
  </outline>
</glyph>
<glyph name="Ze-cy" format="1">
  <advance width="1255"/>
  <unicode hex="0417"/>
  <outline>
    <contour>
      <point x="571" y="702" type="line"/>
      <point x="843" y="701"/>
      <point x="977" y="617"/>
      <point x="977" y="414" type="curve" smooth="yes"/>
      <point x="977" y="182"/>
      <point x="798" y="73"/>
      <point x="596" y="73" type="curve" smooth="yes"/>
      <point x="420" y="73"/>
      <point x="226" y="155"/>
      <point x="114" y="309" type="curve"/>
      <point x="61" y="266" type="line"/>
      <point x="207" y="64"/>
      <point x="421" y="-24"/>
      <point x="640" y="-24" type="curve" smooth="yes"/>
      <point x="911" y="-24"/>
      <point x="1175" y="116"/>
      <point x="1175" y="411" type="curve" smooth="yes"/>
      <point x="1175" y="617"/>
      <point x="1014" y="768"/>
      <point x="699" y="761" type="curve"/>
    </contour>
    <contour>
      <point x="433" y="790" type="line"/>
      <point x="433" y="700" type="line"/>
      <point x="627" y="702" type="line"/>
      <point x="606" y="790" type="line"/>
    </contour>
    <contour>
      <point x="506" y="1467"/>
      <point x="402" y="1427"/>
      <point x="283" y="1342" type="curve"/>
      <point x="293" y="1452" type="line"/>
      <point x="182" y="1452" type="line"/>
      <point x="182" y="977" type="line"/>
      <point x="256" y="977" type="line"/>
      <point x="318" y="1235"/>
      <point x="430" y="1383"/>
      <point x="657" y="1383" type="curve" smooth="yes"/>
      <point x="799" y="1383"/>
      <point x="912" y="1305"/>
      <point x="912" y="1103" type="curve" smooth="yes"/>
      <point x="912" y="941"/>
      <point x="832" y="785"/>
      <point x="580" y="790" type="curve"/>
      <point x="647" y="703" type="line"/>
      <point x="761" y="760" type="line"/>
      <point x="761" y="764" type="line"/>
      <point x="986" y="805"/>
      <point x="1097" y="954"/>
      <point x="1100" y="1117" type="curve" smooth="yes"/>
      <point x="1103" y="1332"/>
      <point x="927" y="1467"/>
      <point x="664" y="1467" type="curve" smooth="yes"/>
    </contour>
  </outline>
</glyph>
<glyph name="U-cy" format="1">
  <advance width="1250"/>
  <unicode hex="0423"/>
  <outline>
    <contour>
      <point x="857" y="1434" type="line"/>
      <point x="857" y="1343" type="line"/>
      <point x="1018" y="1350" type="line"/>
      <point x="990" y="1315"/>
      <point x="953" y="1212"/>
      <point x="926" y="1131" type="curve" smooth="yes"/>
      <point x="857" y="930"/>
      <point x="582" y="242"/>
      <point x="528" y="149" type="curve" smooth="yes"/>
      <point x="479" y="64"/>
      <point x="449" y="46"/>
      <point x="397" y="65" type="curve"/>
      <point x="410" y="80"/>
      <point x="416" y="92"/>
      <point x="416" y="116" type="curve" smooth="yes"/>
      <point x="416" y="159"/>
      <point x="386" y="206"/>
      <point x="321" y="204" type="curve" smooth="yes"/>
      <point x="258" y="202"/>
      <point x="218" y="156"/>
      <point x="218" y="90" type="curve" smooth="yes"/>
      <point x="218" y="-5"/>
      <point x="300" y="-34"/>
      <point x="385" y="-34" type="curve" smooth="yes"/>
      <point x="528" y="-34"/>
      <point x="599" y="79"/>
      <point x="692" y="305" type="curve" smooth="yes"/>
      <point x="1023" y="1106" type="line" smooth="yes"/>
      <point x="1092" y="1274"/>
      <point x="1123" y="1357"/>
      <point x="1275" y="1366" type="curve"/>
      <point x="1275" y="1434" type="line"/>
    </contour>
    <contour>
      <point x="-10" y="1434" type="line"/>
      <point x="-10" y="1343" type="line"/>
      <point x="117" y="1348" type="line"/>
      <point x="127" y="1296"/>
      <point x="146" y="1226"/>
      <point x="200" y="1119" type="curve" smooth="yes"/>
      <point x="613" y="301" type="line"/>
      <point x="700" y="494" type="line"/>
      <point x="376" y="1143" type="line" smooth="yes"/>
      <point x="310" y="1274"/>
      <point x="311" y="1366"/>
      <point x="484" y="1366" type="curve"/>
      <point x="484" y="1434" type="line"/>
    </contour>
  </outline>
</glyph>
<glyph name="Ef-cy" format="1">
  <advance width="1680"/>
  <unicode hex="0424"/>
  <outline>
    <contour>
      <point x="831" y="1243" type="line"/>
      <point x="1193" y="1243"/>
      <point x="1389" y="1065"/>
      <point x="1389" y="680" type="curve" smooth="yes"/>
      <point x="1389" y="374"/>
      <point x="1201" y="229"/>
      <point x="854" y="229" type="curve"/>
      <point x="854" y="147" type="line"/>
      <point x="1361" y="147"/>
      <point x="1590" y="375"/>
      <point x="1590" y="717" type="curve" smooth="yes"/>
      <point x="1590" y="1094"/>
      <point x="1320" y="1327"/>
      <point x="831" y="1327" type="curve"/>
    </contour>
    <contour>
      <point x="323" y="1327"/>
      <point x="94" y="1064"/>
      <point x="94" y="687" type="curve" smooth="yes"/>
      <point x="94" y="345"/>
      <point x="364" y="147"/>
      <point x="853" y="147" type="curve"/>
      <point x="853" y="231" type="line"/>
      <point x="491" y="231"/>
      <point x="295" y="374"/>
      <point x="295" y="724" type="curve" smooth="yes"/>
      <point x="295" y="1065"/>
      <point x="483" y="1245"/>
      <point x="830" y="1245" type="curve"/>
      <point x="830" y="1327" type="line"/>
    </contour>
    <contour>
      <point x="603" y="1555" type="line"/>
      <point x="603" y="1464" type="line"/>
      <point x="751" y="1473" type="line"/>
      <point x="746" y="1432"/>
      <point x="744" y="1381"/>
      <point x="744" y="1325" type="curve" smooth="yes"/>
      <point x="744" y="249" type="line" smooth="yes"/>
      <point x="744" y="104"/>
      <point x="757" y="-26"/>
      <point x="603" y="-32" type="curve"/>
      <point x="603" y="-100" type="line"/>
      <point x="1064" y="-100" type="line"/>
      <point x="1064" y="-10" type="line"/>
      <point x="916" y="-18" type="line"/>
      <point x="921" y="17"/>
      <point x="923" y="100"/>
      <point x="923" y="174" type="curve" smooth="yes"/>
      <point x="923" y="1235" type="line" smooth="yes"/>
      <point x="923" y="1381"/>
      <point x="910" y="1481"/>
      <point x="1064" y="1487" type="curve"/>
      <point x="1064" y="1555" type="line"/>
    </contour>
  </outline>
</glyph>
<glyph name="Ereversed-cy" format="1">
  <advance width="1428"/>
  <unicode hex="042D"/>
  <outline>
    <contour>
      <point x="473" y="1467"/>
      <point x="340" y="1426"/>
      <point x="214" y="1342" type="curve"/>
      <point x="224" y="1452" type="line"/>
      <point x="113" y="1452" type="line"/>
      <point x="113" y="977" type="line"/>
      <point x="187" y="977" type="line"/>
      <point x="216" y="1233"/>
      <point x="375" y="1383"/>
      <point x="613" y="1383" type="curve" smooth="yes"/>
      <point x="904" y="1383"/>
      <point x="1137" y="1126"/>
      <point x="1137" y="725" type="curve" smooth="yes"/>
      <point x="1137" y="338"/>
      <point x="891" y="74"/>
      <point x="588" y="74" type="curve" smooth="yes"/>
      <point x="410" y="74"/>
      <point x="226" y="156"/>
      <point x="115" y="309" type="curve"/>
      <point x="62" y="266" type="line"/>
      <point x="238" y="23"/>
      <point x="474" y="-33"/>
      <point x="642" y="-33" type="curve" smooth="yes"/>
      <point x="1053" y="-33"/>
      <point x="1338" y="287"/>
      <point x="1338" y="694" type="curve" smooth="yes"/>
      <point x="1338" y="1079"/>
      <point x="1104" y="1467"/>
      <point x="627" y="1467" type="curve" smooth="yes"/>
    </contour>
    <contour>
      <point x="371" y="961" type="line"/>
      <point x="371" y="530" type="line"/>
      <point x="438" y="530" type="line"/>
      <point x="438" y="711"/>
      <point x="508" y="713"/>
      <point x="682" y="711" type="curve" smooth="yes"/>
      <point x="1201" y="705" type="line"/>
      <point x="1201" y="786" type="line"/>
      <point x="447" y="784" type="line"/>
      <point x="462" y="961" type="line"/>
    </contour>
  </outline>
</glyph>
<glyph name="de-cy" format="1">
  <advance width="1210"/>
  <unicode hex="0434"/>
  <outline>
    <contour>
      <point x="969" y="78" type="line"/>
      <point x="977" y="125"/>
      <point x="977" y="162"/>
      <point x="980" y="217" type="curve"/>
      <point x="980" y="713" type="line" smooth="yes"/>
      <point x="981" y="860"/>
      <point x="976" y="963"/>
      <point x="1101" y="963" type="curve"/>
      <point x="1101" y="1024" type="line"/>
      <point x="196" y="1024" type="line"/>
      <point x="196" y="935" type="line"/>
      <point x="377" y="944" type="line"/>
      <point x="367" y="600"/>
      <point x="336" y="369"/>
      <point x="275" y="207" type="curve" smooth="yes"/>
      <point x="234" y="97"/>
      <point x="195" y="77"/>
      <point x="128" y="77" type="curve" smooth="yes"/>
      <point x="45" y="77" type="line"/>
      <point x="45" y="-364" type="line"/>
      <point x="123" y="-364" type="line"/>
      <point x="123" y="-140"/>
      <point x="160" y="0"/>
      <point x="295" y="0" type="curve" smooth="yes"/>
      <point x="907" y="0" type="line" smooth="yes"/>
      <point x="1042" y="0"/>
      <point x="1077" y="-142"/>
      <point x="1077" y="-364" type="curve"/>
      <point x="1155" y="-364" type="line"/>
      <point x="1155" y="86" type="line"/>
    </contour>
    <contour>
      <point x="314" y="77" type="line"/>
      <point x="340" y="106"/>
      <point x="362" y="146"/>
      <point x="380" y="198" type="curve" smooth="yes"/>
      <point x="415" y="301"/>
      <point x="457" y="535"/>
      <point x="480" y="808" type="curve" smooth="yes"/>
      <point x="490" y="893"/>
      <point x="513" y="946"/>
      <point x="599" y="946" type="curve" smooth="yes"/>
      <point x="812" y="946" type="line"/>
      <point x="804" y="899"/>
      <point x="804" y="862"/>
      <point x="804" y="807" type="curve" smooth="yes"/>
      <point x="804" y="327" type="line" smooth="yes"/>
      <point x="804" y="180"/>
      <point x="805" y="77"/>
      <point x="680" y="77" type="curve" smooth="yes"/>
    </contour>
  </outline>
</glyph>
<glyph name="ze-cy" format="1">
  <advance width="940"/>
  <unicode hex="0437"/>
  <outline>
    <contour>
      <point x="431" y="486" type="line"/>
      <point x="565" y="486"/>
      <point x="684" y="420"/>
      <point x="684" y="247" type="curve" smooth="yes"/>
      <point x="684" y="104"/>
      <point x="571" y="38"/>
      <point x="450" y="38" type="curve" smooth="yes"/>
      <point x="361" y="38"/>
      <point x="268" y="72"/>
      <point x="214" y="153" type="curve"/>
      <point x="238" y="178"/>
      <point x="245" y="209"/>
      <point x="245" y="236" type="curve" smooth="yes"/>
      <point x="245" y="271"/>
      <point x="221" y="330"/>
      <point x="150" y="328" type="curve" smooth="yes"/>
      <point x="89" y="327"/>
      <point x="55" y="278"/>
      <point x="55" y="220" type="curve" smooth="yes"/>
      <point x="45" y="120"/>
      <point x="189" y="-33"/>
      <point x="463" y="-33" type="curve" smooth="yes"/>
      <point x="707" y="-33"/>
      <point x="880" y="82"/>
      <point x="880" y="270" type="curve" smooth="yes"/>
      <point x="880" y="429"/>
      <point x="756" y="539"/>
      <point x="570" y="538" type="curve"/>
    </contour>
    <contour>
      <point x="401" y="1057"/>
      <point x="307" y="1037"/>
      <point x="223" y="969" type="curve"/>
      <point x="228" y="1047" type="line"/>
      <point x="142" y="1047" type="line"/>
      <point x="142" y="688" type="line"/>
      <point x="206" y="688" type="line"/>
      <point x="216" y="829"/>
      <point x="296" y="980"/>
      <point x="464" y="980" type="curve" smooth="yes"/>
      <point x="582" y="980"/>
      <point x="644" y="905"/>
      <point x="644" y="783" type="curve" smooth="yes"/>
      <point x="644" y="654"/>
      <point x="575" y="562"/>
      <point x="422" y="562" type="curve" smooth="yes"/>
      <point x="337" y="562" type="line"/>
      <point x="337" y="486" type="line"/>
      <point x="466" y="486" type="line"/>
      <point x="605" y="530" type="line"/>
      <point x="605" y="541" type="line"/>
      <point x="746" y="578"/>
      <point x="832" y="677"/>
      <point x="832" y="798" type="curve" smooth="yes"/>
      <point x="832" y="956"/>
      <point x="687" y="1057"/>
      <point x="490" y="1057" type="curve" smooth="yes"/>
    </contour>
  </outline>
</glyph>
<glyph name="en-cy" format="1">
  <advance width="1274"/>
  <unicode hex="043D"/>
  <outline>
    <contour>
      <point x="766" y="1024" type="line"/>
      <point x="766" y="940" type="line"/>
      <point x="895" y="946" type="line"/>
      <point x="887" y="899"/>
      <point x="887" y="862"/>
      <point x="887" y="807" type="curve" smooth="yes"/>
      <point x="885" y="311" type="line" smooth="yes"/>
      <point x="884" y="164"/>
      <point x="888" y="61"/>
      <point x="763" y="61" type="curve"/>
      <point x="763" y="0" type="line"/>
      <point x="1181" y="0" type="line"/>
      <point x="1181" y="84" type="line"/>
      <point x="1052" y="78" type="line"/>
      <point x="1060" y="125"/>
      <point x="1060" y="162"/>
      <point x="1060" y="217" type="curve" smooth="yes"/>
      <point x="1063" y="713" type="line" smooth="yes"/>
      <point x="1064" y="860"/>
      <point x="1059" y="963"/>
      <point x="1184" y="963" type="curve"/>
      <point x="1184" y="1024" type="line"/>
    </contour>
    <contour>
      <point x="93" y="1024" type="line"/>
      <point x="93" y="940" type="line"/>
      <point x="222" y="946" type="line"/>
      <point x="214" y="899"/>
      <point x="214" y="862"/>
      <point x="214" y="807" type="curve" smooth="yes"/>
      <point x="212" y="311" type="line" smooth="yes"/>
      <point x="211" y="164"/>
      <point x="215" y="61"/>
      <point x="90" y="61" type="curve"/>
      <point x="90" y="0" type="line"/>
      <point x="508" y="0" type="line"/>
      <point x="508" y="84" type="line"/>
      <point x="379" y="78" type="line"/>
      <point x="387" y="125"/>
      <point x="387" y="162"/>
      <point x="387" y="217" type="curve" smooth="yes"/>
      <point x="390" y="713" type="line" smooth="yes"/>
      <point x="391" y="860"/>
      <point x="386" y="963"/>
      <point x="511" y="963" type="curve"/>
      <point x="511" y="1024" type="line"/>
    </contour>
    <contour>
      <point x="316" y="566" type="line"/>
      <point x="316" y="478" type="line"/>
      <point x="959" y="486" type="line"/>
      <point x="959" y="566" type="line"/>
    </contour>
  </outline>
</glyph>
<glyph name="ushort-cy" format="1">
  <advance width="1081"/>
  <unicode hex="045E"/>
  <outline>
    <contour>
      <point x="715" y="1456"/>
      <point x="697" y="1400"/>
      <point x="697" y="1371" type="curve" smooth="yes"/>
      <point x="697" y="1348"/>
      <point x="703" y="1319"/>
      <point x="717" y="1296" type="curve"/>
      <point x="701" y="1267"/>
      <point x="632" y="1257"/>
      <point x="577" y="1257" type="curve" smooth="yes"/>
      <point x="522" y="1257"/>
      <point x="453" y="1267"/>
      <point x="437" y="1296" type="curve"/>
      <point x="451" y="1319"/>
      <point x="457" y="1348"/>
      <point x="457" y="1371" type="curve" smooth="yes"/>
      <point x="457" y="1400"/>
      <point x="439" y="1456"/>
      <point x="371" y="1454" type="curve" smooth="yes"/>
      <point x="320" y="1453"/>
      <point x="290" y="1408"/>
      <point x="290" y="1359" type="curve" smooth="yes"/>
      <point x="290" y="1250"/>
      <point x="420" y="1182"/>
      <point x="577" y="1182" type="curve" smooth="yes"/>
      <point x="734" y="1182"/>
      <point x="864" y="1250"/>
      <point x="864" y="1359" type="curve" smooth="yes"/>
      <point x="864" y="1408"/>
      <point x="834" y="1453"/>
      <point x="783" y="1454" type="curve" smooth="yes"/>
    </contour>
    <component base="u-cy"/>
  </outline>
</glyph>
<glyph name="Euro" format="1">
  <advance width="1556"/>
  <unicode hex="20AC"/>
  <outline>
    <contour>
      <point x="580" y="1467"/>
      <point x="362" y="1220"/>
      <point x="286" y="929" type="curve"/>
      <point x="101" y="930" type="line"/>
      <point x="72" y="807" type="line"/>
      <point x="263" y="807" type="line"/>
      <point x="255" y="749"/>
      <point x="256" y="688"/>
      <point x="260" y="630" type="curve"/>
      <point x="101" y="631" type="line"/>
      <point x="72" y="508" type="line"/>
      <point x="274" y="509" type="line"/>
      <point x="337" y="195"/>
      <point x="565" y="-33"/>
      <point x="912" y="-33" type="curve" smooth="yes"/>
      <point x="1080" y="-33"/>
      <point x="1295" y="21"/>
      <point x="1471" y="264" type="curve"/>
      <point x="1418" y="307" type="line"/>
      <point x="1307" y="154"/>
      <point x="1143" y="80"/>
      <point x="965" y="80" type="curve" smooth="yes"/>
      <point x="722" y="80"/>
      <point x="535" y="246"/>
      <point x="470" y="510" type="curve"/>
      <point x="957" y="512" type="line"/>
      <point x="1014" y="627" type="line"/>
      <point x="449" y="629" type="line"/>
      <point x="444" y="686"/>
      <point x="444" y="751"/>
      <point x="448" y="808" type="curve"/>
      <point x="1098" y="811" type="line"/>
      <point x="1153" y="926" type="line"/>
      <point x="464" y="929" type="line"/>
      <point x="525" y="1219"/>
      <point x="717" y="1381"/>
      <point x="940" y="1381" type="curve" smooth="yes"/>
      <point x="1175" y="1381"/>
      <point x="1275" y="1231"/>
      <point x="1305" y="1036" type="curve"/>
      <point x="1379" y="1036" type="line"/>
      <point x="1420" y="1450" type="line"/>
      <point x="1309" y="1450" type="line"/>
      <point x="1306" y="1349" type="line"/>
      <point x="1188" y="1427"/>
      <point x="1074" y="1467"/>
      <point x="926" y="1467" type="curve" smooth="yes"/>
    </contour>
  </outline>
</glyph>
<glyph name="partialdiff" format="1">
  <advance width="1042"/>
  <unicode hex="2202"/>
  <outline>
    <contour>
      <point x="258" y="1484" type="line"/>
      <point x="644" y="1495"/>
      <point x="736" y="1221"/>
      <point x="757" y="943" type="curve"/>
      <point x="703" y="999"/>
      <point x="630" y="1027"/>
      <point x="555" y="1030" type="curve" smooth="yes"/>
      <point x="303" y="1038"/>
      <point x="76" y="793"/>
      <point x="76" y="418" type="curve" smooth="yes"/>
      <point x="76" y="121"/>
      <point x="240" y="-33"/>
      <point x="424" y="-33" type="curve" smooth="yes"/>
      <point x="690" y="-33"/>
      <point x="930" y="160"/>
      <point x="930" y="713" type="curve" smooth="yes"/>
      <point x="930" y="1196"/>
      <point x="758" y="1594"/>
      <point x="258" y="1553" type="curve"/>
    </contour>
    <contour>
      <point x="646" y="948"/>
      <point x="715" y="911"/>
      <point x="763" y="822" type="curve"/>
      <point x="763" y="788"/>
      <point x="764" y="753"/>
      <point x="764" y="721" type="curve" smooth="yes"/>
      <point x="764" y="469"/>
      <point x="697" y="45"/>
      <point x="461" y="45" type="curve" smooth="yes"/>
      <point x="342" y="45"/>
      <point x="252" y="186"/>
      <point x="252" y="440" type="curve" smooth="yes"/>
      <point x="252" y="766"/>
      <point x="412" y="948"/>
      <point x="555" y="948" type="curve" smooth="yes"/>
    </contour>
  </outline>
</glyph>
<glyph name="integral" format="1">
  <advance width="817"/>
  <unicode hex="222B"/>
  <outline>
    <contour>
      <point x="399" y="1562"/>
      <point x="303" y="1351"/>
      <point x="308" y="1087" type="curve" smooth="yes"/>
      <point x="332" y="-228" type="line" smooth="yes"/>
      <point x="335" y="-392"/>
      <point x="285" y="-469"/>
      <point x="215" y="-474" type="curve" smooth="yes"/>
      <point x="192" y="-476"/>
      <point x="147" y="-470"/>
      <point x="130" y="-445" type="curve"/>
      <point x="137" y="-429"/>
      <point x="139" y="-417"/>
      <point x="139" y="-402" type="curve" smooth="yes"/>
      <point x="139" y="-373"/>
      <point x="119" y="-319"/>
      <point x="59" y="-321" type="curve" smooth="yes"/>
      <point x="9" y="-322"/>
      <point x="-20" y="-362"/>
      <point x="-20" y="-409" type="curve" smooth="yes"/>
      <point x="-20" y="-503"/>
      <point x="70" y="-555"/>
      <point x="172" y="-555" type="curve" smooth="yes"/>
      <point x="417" y="-555"/>
      <point x="513" y="-356"/>
      <point x="508" y="-87" type="curve" smooth="yes"/>
      <point x="484" y="1239" type="line" smooth="yes"/>
      <point x="481" y="1428"/>
      <point x="532" y="1476"/>
      <point x="606" y="1482" type="curve" smooth="yes"/>
      <point x="629" y="1484"/>
      <point x="671" y="1476"/>
      <point x="688" y="1451" type="curve"/>
      <point x="681" y="1435"/>
      <point x="677" y="1418"/>
      <point x="677" y="1403" type="curve" smooth="yes"/>
      <point x="677" y="1374"/>
      <point x="698" y="1322"/>
      <point x="758" y="1324" type="curve" smooth="yes"/>
      <point x="808" y="1325"/>
      <point x="836" y="1363"/>
      <point x="836" y="1410" type="curve" smooth="yes"/>
      <point x="836" y="1504"/>
      <point x="733" y="1554"/>
      <point x="651" y="1556" type="curve" smooth="yes"/>
    </contour>
  </outline>
</glyph>
<glyph name="lessequal" format="1">
  <advance width="1186"/>
  <unicode hex="2264"/>
  <outline>
    <contour>
      <point x="119" y="0" type="line"/>
      <point x="1031" y="0" type="line"/>
      <point x="1031" y="106" type="line"/>
      <point x="119" y="115" type="line"/>
    </contour>
    <component base="less" xOffset="50" yOffset="37"/>
  </outline>
</glyph>
<glyph name="greaterequal" format="1">
  <advance width="1186"/>
  <unicode hex="2265"/>
  <outline>
    <contour>
      <point x="157" y="106" type="line"/>
      <point x="157" y="0" type="line"/>
      <point x="1069" y="0" type="line"/>
      <point x="1069" y="115" type="line"/>
    </contour>
    <component base="less" xOffset="1138" yOffset="1329" xScale="-1" yScale="-1"/>
  </outline>
</glyph>
<glyph name="fi" format="1">
  <advance width="1276"/>
  <unicode hex="FB01"/>
  <outline>
    <contour>
      <point x="367" y="1556"/>
      <point x="219" y="1345"/>
      <point x="219" y="1028" type="curve" smooth="yes"/>
      <point x="219" y="1024" type="line"/>
      <point x="145" y="1025"/>
      <point x="85" y="1024"/>
      <point x="51" y="1024" type="curve"/>
      <point x="51" y="932" type="line"/>
      <point x="219" y="936" type="line"/>
      <point x="223" y="311" type="line" smooth="yes"/>
      <point x="223" y="164"/>
      <point x="228" y="61"/>
      <point x="103" y="61" type="curve"/>
      <point x="103" y="0" type="line"/>
      <point x="518" y="0" type="line"/>
      <point x="518" y="84" type="line"/>
      <point x="389" y="78" type="line"/>
      <point x="398" y="125"/>
      <point x="398" y="160"/>
      <point x="398" y="215" type="curve" smooth="yes"/>
      <point x="396" y="941" type="line"/>
      <point x="916" y="952" type="line"/>
      <point x="910" y="897"/>
      <point x="908" y="862"/>
      <point x="908" y="819" type="curve" smooth="yes"/>
      <point x="908" y="311" type="line" smooth="yes"/>
      <point x="908" y="164"/>
      <point x="912" y="61"/>
      <point x="787" y="61" type="curve"/>
      <point x="787" y="0" type="line"/>
      <point x="1204" y="0" type="line"/>
      <point x="1204" y="84" type="line"/>
      <point x="1075" y="78" type="line"/>
      <point x="1084" y="125"/>
      <point x="1084" y="162"/>
      <point x="1084" y="217" type="curve" smooth="yes"/>
      <point x="1084" y="1044" type="line"/>
      <point x="1024" y="1044" type="line"/>
      <point x="1014" y="1036"/>
      <point x="957" y="1024"/>
      <point x="864" y="1024" type="curve" smooth="yes"/>
      <point x="396" y="1024" type="line"/>
      <point x="396" y="1100" type="line" smooth="yes"/>
      <point x="396" y="1356"/>
      <point x="527" y="1479"/>
      <point x="713" y="1479" type="curve" smooth="yes"/>
      <point x="799" y="1479"/>
      <point x="866" y="1457"/>
      <point x="914" y="1422" type="curve"/>
      <point x="906" y="1404"/>
      <point x="903" y="1384"/>
      <point x="903" y="1367" type="curve" smooth="yes"/>
      <point x="903" y="1334"/>
      <point x="928" y="1277"/>
      <point x="996" y="1279" type="curve" smooth="yes"/>
      <point x="1053" y="1280"/>
      <point x="1084" y="1322"/>
      <point x="1084" y="1376" type="curve" smooth="yes"/>
      <point x="1084" y="1483"/>
      <point x="938" y="1556"/>
      <point x="754" y="1556" type="curve" smooth="yes"/>
    </contour>
  </outline>
</glyph>
<glyph name="Breve" format="1">
  <advance width="743"/>
  <outline>
    <contour>
      <point x="577" y="1836"/>
      <point x="479" y="1782"/>
      <point x="375" y="1782" type="curve" smooth="yes"/>
      <point x="271" y="1782"/>
      <point x="173" y="1836"/>
      <point x="130" y="1892" type="curve"/>
      <point x="75" y="1868" type="line"/>
      <point x="138" y="1731"/>
      <point x="250" y="1657"/>
      <point x="375" y="1657" type="curve" smooth="yes"/>
      <point x="500" y="1657"/>
      <point x="612" y="1731"/>
      <point x="675" y="1868" type="curve"/>
      <point x="620" y="1892" type="line"/>
    </contour>
    <contour>
      <point x="375" y="1434" type="move" name="_top"/>
    </contour>
  </outline>
</glyph>
<glyph name="Dieresis" format="1">
  <advance width="776"/>
  <outline>
    <contour>
      <point x="513" y="1850"/>
      <point x="460" y="1791"/>
      <point x="460" y="1718" type="curve" smooth="yes"/>
      <point x="460" y="1647"/>
      <point x="511" y="1589"/>
      <point x="571" y="1589" type="curve" smooth="yes"/>
      <point x="630" y="1589"/>
      <point x="683" y="1647"/>
      <point x="683" y="1718" type="curve" smooth="yes"/>
      <point x="683" y="1791"/>
      <point x="635" y="1850"/>
      <point x="573" y="1850" type="curve" smooth="yes"/>
    </contour>
    <contour>
      <point x="145" y="1850"/>
      <point x="92" y="1791"/>
      <point x="92" y="1718" type="curve" smooth="yes"/>
      <point x="92" y="1647"/>
      <point x="143" y="1589"/>
      <point x="203" y="1589" type="curve" smooth="yes"/>
      <point x="262" y="1589"/>
      <point x="315" y="1647"/>
      <point x="315" y="1718" type="curve" smooth="yes"/>
      <point x="315" y="1791"/>
      <point x="267" y="1850"/>
      <point x="205" y="1850" type="curve" smooth="yes"/>
    </contour>
  </outline>
</glyph>
